<svg width="604" height="424" viewBox="0 0 604 424" fill="none" xmlns="http://www.w3.org/2000/svg">
<g clip-path="url(#clip0_102_5887)">
<path opacity="0.2" d="M242.876 114.904C223.995 46.4243 138.929 24.3666 90.1755 75.5486C89.4749 76.2854 88.7743 77.0344 88.0737 77.7954C18.1801 153.777 51.1941 341.002 197.057 388.451C342.921 435.9 494.643 349.252 503.159 271.784C511.687 194.317 444.391 169.976 339.949 191.635C280.963 203.872 254.63 157.546 242.876 114.904Z" fill="#319BFF"/>
<path d="M364.205 126.622C344.684 129.799 339.284 147.085 354.348 159.358C359.325 163.417 366.44 166.775 376.575 168.466C415.17 174.869 435.657 157.788 420.183 135.645C410.64 121.971 383.557 123.469 364.205 126.622Z" fill="#BBE2F2"/>
<path d="M53.0419 264.984C40.9138 249.377 23.1445 252.904 19.581 272.002C18.4092 278.32 18.8562 286.172 22.2264 295.872C35.0793 332.824 59.8791 342.632 71.9226 318.449C79.3396 303.53 65.0613 280.458 53.0419 264.984Z" fill="#BBE2F2"/>
<path d="M516.929 280.784C515.129 290.194 522.909 296.862 531.703 293.238C534.614 292.042 537.549 289.723 540.159 285.664C550.112 270.19 545.063 256.914 531.22 258.267C522.667 259.113 518.705 271.458 516.929 280.784Z" fill="#BBE2F2"/>
<path d="M467.595 181.464C476.969 183.421 483.77 175.762 480.291 166.896C479.143 163.96 476.884 160.989 472.862 158.307C457.557 148.1 444.197 152.907 445.32 166.787C446.021 175.352 458.294 179.531 467.595 181.464Z" fill="#BBE2F2"/>
<path d="M239.614 80.755C247.043 86.8069 256.598 83.1347 257.589 73.6641C257.915 70.5355 257.275 66.8512 254.943 62.6232C246.053 46.5088 231.98 44.6364 226.592 57.4772C223.282 65.4016 232.258 74.7513 239.614 80.755Z" fill="#BBE2F2"/>
<path d="M540.183 327.871C555.077 312.904 566.42 295.98 555.138 293.347C543.843 290.701 524.878 320.188 521.568 347.029L518.258 355.884C521.012 336.363 514.32 312.59 504.535 311.611C494.811 310.633 500.694 326.059 508.425 339.25C514.308 349.288 515.854 357.213 516.241 361.295L500.622 403.14C504.886 372.228 494.292 334.708 478.806 333.162C463.368 331.615 472.717 356.089 484.978 377.011C494.243 392.824 496.732 405.326 497.372 411.861L494.256 420.209C495.621 420.97 496.986 421.731 498.351 422.48L516.941 372.687C520.529 370.005 525.977 366.78 533.72 364.158C548.204 359.266 562.748 351.475 554.763 345.833C547.829 340.941 531.534 350.363 520.312 363.651L526.738 346.437C529.637 341.46 533.756 334.333 540.183 327.871Z" fill="#1C31B5"/>
<path d="M70.7151 132.541C72.6479 114.457 71.1379 96.978 62.1385 101.291C53.127 105.603 56.2919 135.633 68.5408 155.432L71.1017 163.163C62.4284 148.571 45.1181 136.213 38.0152 140.84C30.9606 145.43 43.2216 152.617 55.5188 157.304C64.8806 160.88 70.1957 165.362 72.66 167.898L84.7277 204.428C70.9326 181.367 43.596 161.883 32.3498 169.191C21.1518 176.475 40.6123 187.866 60.1332 195.307C74.8826 200.937 83.2902 207.991 87.2402 212.026L89.6441 219.31C90.9729 219.092 92.3017 218.863 93.6184 218.633L79.2676 175.182C80.234 171.45 82.1426 166.34 85.9356 160.409C93.0144 149.32 98.5952 136.237 90.1877 136.757C82.8915 137.204 77.0328 152.315 76.6584 167.294L71.6936 152.267C70.9567 147.351 69.8816 140.344 70.7151 132.541Z" fill="#1C31B5"/>
<path d="M439.643 377.603C439.837 378.63 440.054 379.741 440.308 380.937C442.99 393.404 449.573 413.818 464.383 417.829C464.383 417.829 456.326 375.791 485.063 364.835C513.801 353.891 510.624 343.454 508.981 324.899C507.339 306.345 500.985 302.805 520.928 285.422C540.872 268.04 537.055 242.141 537.055 242.141C537.055 242.141 518.186 271.7 498.025 272.388C477.864 273.077 474.337 290.279 475.194 303.071C476.052 315.863 458.935 317.313 449.67 324.73C440.405 332.147 438.665 371.128 438.665 371.128C438.665 371.128 438.931 373.689 439.643 377.603Z" fill="#009CF8"/>
<path d="M439.644 377.603C439.837 378.63 440.054 379.741 440.308 380.937C442.374 374.68 445.285 369.425 448.003 365.391C454.453 355.835 463.525 347.996 471.691 344.915C484.689 340.011 491.043 327.267 492.275 303.566C492.988 289.807 507.375 281.69 507.52 281.605C507.943 281.376 508.1 280.844 507.858 280.421C507.629 279.999 507.097 279.842 506.674 280.083C506.046 280.433 491.285 288.744 490.524 303.482C489.34 326.385 483.336 338.67 471.075 343.285C462.462 346.534 453.294 354.434 446.553 364.412C444.173 367.939 441.661 372.385 439.644 377.603Z" fill="#006BDE"/>
<path d="M121.559 417.599H141.756C130.848 415.799 103.789 404.179 101.386 380.889C98.3294 351.39 87.832 351.765 70.1231 348.672C52.4262 345.592 47.546 350.629 36.3118 327.726C25.0776 304.823 0 301.936 0 301.936C0 301.936 22.8549 326.868 18.4821 345.821C14.1092 364.775 29.2572 372.336 41.3974 374.716C53.5375 377.096 50.6263 393.404 55.2408 403.877C57.3427 408.66 65.9556 413.613 74.7013 417.587H121.559V417.599Z" fill="#006BDE"/>
<path d="M77.8178 388.56C78.6996 397.39 83.7852 407.899 91.4075 416.657C91.6733 416.971 91.9511 417.273 92.241 417.587H94.5362C93.8839 416.899 93.2557 416.21 92.6759 415.546C85.3797 407.162 80.3303 396.762 79.4848 388.378C78.156 375.042 67.8519 365.958 46.0842 358.928C33.4488 354.845 29.4504 339.419 29.4141 339.262C29.3054 338.815 28.8464 338.537 28.3994 338.646C27.9525 338.755 27.6746 339.214 27.7833 339.661C27.9525 340.337 32.0233 356.15 45.5648 360.522C66.6077 367.348 76.5615 375.985 77.8178 388.56Z" fill="#1C31B5"/>
<path d="M132.442 362.854C132.019 364.291 131.524 365.85 130.981 367.505C125.243 384.875 113.465 414.145 91.7093 417.599C91.7093 417.599 108.923 357.696 69.6154 337.667C30.3078 317.639 36.4443 303.24 41.6386 277.027C46.8329 250.802 56.4363 246.731 30.6702 218.863C4.89195 190.995 14.3142 154.647 14.3142 154.647C14.3142 154.647 36.6859 199.729 65.3391 203.799C93.9923 207.87 96.3721 232.972 93.183 251.092C89.9939 269.211 114.19 273.91 126.257 285.918C138.325 297.925 134.822 353.794 134.822 353.794C134.822 353.794 134.073 357.382 132.442 362.854Z" fill="#009CF8"/>
<path d="M132.442 362.854C132.019 364.291 131.524 365.85 130.98 367.504C128.999 358.263 125.653 350.315 122.391 344.154C114.66 329.538 102.919 316.951 91.745 311.297C73.9515 302.31 66.8607 283.139 68.7451 249.147C69.8444 229.421 50.5651 215.613 50.3597 215.481C49.792 215.082 49.6591 214.297 50.0577 213.741C50.4564 213.173 51.2416 213.04 51.7972 213.439C52.6428 214.031 72.4174 228.164 71.2336 249.292C69.4095 282.149 76.0776 300.595 92.8564 309.075C104.646 315.03 116.509 327.702 124.59 342.983C127.465 348.382 130.388 355.099 132.442 362.854Z" fill="#006BDE"/>
<path d="M148.038 403.514C148.11 408.068 148.183 412.804 148.291 417.599H192.213C192.298 412.357 192.358 407.319 192.407 402.608C192.54 389.828 192.552 379.306 192.54 372.759C192.54 368.121 192.515 365.487 192.515 365.487L147.724 365.016C147.724 365.016 147.724 368.882 147.76 375.211C147.796 382.254 147.869 392.328 148.038 403.514Z" fill="#18315B"/>
<path d="M147.771 375.224C147.796 382.254 147.88 392.328 148.049 403.514C161.844 404.565 176.968 404.577 192.418 402.608C192.551 389.828 192.563 379.307 192.551 372.759L147.771 375.224Z" fill="#000B29"/>
<path d="M92.6879 393.416C92.7362 400.579 92.8207 408.781 92.9657 417.599H136.888C136.996 412.429 137.081 407.332 137.154 402.451C137.311 391.99 137.383 382.556 137.419 375.791C137.456 369.123 137.456 365.028 137.456 365.028L92.6516 365.499C92.6516 365.499 92.6154 370.247 92.6275 378.244C92.6275 382.472 92.6516 387.593 92.6879 393.416Z" fill="#18315B"/>
<path d="M92.6279 378.244C92.6279 382.471 92.6521 387.593 92.6883 393.416C101.603 396.049 117.573 400.132 137.154 402.451C137.311 391.99 137.383 382.556 137.42 375.791L92.6279 378.244Z" fill="#000B29"/>
<path d="M166.266 129.376C166.266 129.376 173.32 122.575 173.296 115.871C173.272 109.155 168.706 111.136 166.266 104.89C163.814 98.6331 156.542 94.8159 152.555 95.589C148.569 96.35 140.137 80.7913 128.71 83.5334C117.282 86.2755 118.273 100.928 113.356 103.066C108.44 105.204 109.805 113.902 112.402 115.883C114.999 117.864 116.099 125.837 117.548 125.656C119.01 125.462 166.266 129.376 166.266 129.376Z" fill="#18315B"/>
<path d="M118.756 129.219C118.756 129.219 114.323 123.3 111.025 128.192C107.727 133.085 112.39 147.532 120.471 144.005L118.756 129.219Z" fill="#F97853"/>
<path d="M118.695 139.547C118.393 139.547 118.128 139.354 118.043 139.052C116.787 134.595 112.172 132.783 112.124 132.758C111.774 132.626 111.592 132.227 111.725 131.877C111.858 131.526 112.257 131.345 112.607 131.478C112.825 131.563 117.922 133.532 119.36 138.678C119.456 139.04 119.251 139.414 118.889 139.523C118.828 139.535 118.756 139.547 118.695 139.547Z" fill="#EA5143"/>
<path d="M114.033 137.3C113.912 137.3 113.779 137.264 113.658 137.192C113.344 136.986 113.248 136.564 113.453 136.249C113.489 136.201 114.311 134.945 116.014 134.184C116.352 134.027 116.763 134.184 116.92 134.534C117.077 134.872 116.92 135.283 116.57 135.44C115.241 136.032 114.601 136.986 114.601 136.998C114.48 137.18 114.262 137.3 114.033 137.3Z" fill="#EA5143"/>
<path d="M164.49 129.219C164.49 129.219 168.923 123.3 172.221 128.192C175.519 133.085 170.856 147.532 162.774 144.005L164.49 129.219Z" fill="#F97853"/>
<path d="M164.551 139.547C164.853 139.547 165.118 139.354 165.203 139.052C166.459 134.595 171.074 132.783 171.122 132.758C171.472 132.626 171.653 132.227 171.521 131.877C171.388 131.526 170.989 131.345 170.639 131.478C170.421 131.563 165.324 133.532 163.886 138.678C163.789 139.04 163.995 139.414 164.357 139.523C164.418 139.535 164.49 139.547 164.551 139.547Z" fill="#EA5143"/>
<path d="M169.213 137.3C169.333 137.3 169.466 137.264 169.587 137.192C169.901 136.986 169.998 136.564 169.792 136.249C169.756 136.201 168.935 134.945 167.232 134.184C166.893 134.027 166.483 134.184 166.326 134.534C166.169 134.872 166.326 135.283 166.676 135.44C167.993 136.032 168.645 136.986 168.645 136.998C168.766 137.18 168.983 137.3 169.213 137.3Z" fill="#EA5143"/>
<path d="M152.543 156.266V170.641C152.543 170.641 148.255 177.961 142.457 178.456C136.67 178.964 131.524 172.151 131.524 172.151V157.28L152.543 156.266Z" fill="#FFA681"/>
<path d="M152.543 156.266V162.644C148.654 166.956 141.744 168.031 131.524 166.533V157.28L152.543 156.266Z" fill="#F97853"/>
<path d="M167.691 119.362C167.426 124.943 166.894 131.925 165.831 137.518C165.565 138.907 165.263 140.224 164.925 141.395C161.905 151.989 154.331 170.145 133.155 162.583C123.806 159.249 119.469 148.825 117.536 138.231C116.219 131.031 116.026 123.759 116.123 118.565C116.219 113.262 119.119 108.418 123.733 105.796C136.236 98.7056 149.427 101.351 158.112 104.685C164.152 107.004 168.005 112.923 167.691 119.362Z" fill="#FFA681"/>
<path d="M117.548 138.218C117.548 138.218 119.601 150.467 121.546 154.925C123.491 159.382 128.794 160.228 130.787 163.997C133.626 169.372 137.951 173.636 145.078 171.039C150.997 168.877 150.731 165.845 154.053 163.501C159.742 159.491 162.557 155.07 162.787 151.41C163.016 147.749 165.843 137.506 165.843 137.506L162.787 137.288C162.787 137.288 161.047 140.888 158.486 144.862C155.913 139.221 143.544 143.328 143.544 143.328L141.176 144.089L138.748 143.328C138.748 143.328 126.233 139.402 123.757 145.309C122.247 142.99 121.015 140.393 120.447 137.627L117.548 138.218ZM141.188 145.998C155.382 143.558 152.845 151.869 152.748 152.171C151.782 153.089 150.803 153.85 149.837 154.381C144.341 157.353 143.749 156.906 141.575 157.003C139.364 157.111 136.32 156.459 133.239 154.732C132.273 154.188 130.836 153.149 129.265 151.712C129.253 151.712 127.018 144.089 141.188 145.998Z" fill="#18315B"/>
<path d="M132.66 131.091C132.66 132.625 131.875 133.87 130.896 133.87C129.918 133.87 129.133 132.625 129.133 131.091C129.133 129.557 129.918 128.313 130.896 128.313C131.863 128.313 132.66 129.557 132.66 131.091Z" fill="#18315B"/>
<path d="M153.643 131.091C153.643 132.625 152.857 133.87 151.879 133.87C150.9 133.87 150.115 132.625 150.115 131.091C150.115 129.557 150.9 128.313 151.879 128.313C152.857 128.313 153.643 129.557 153.643 131.091Z" fill="#18315B"/>
<path d="M158.837 121.947C158.837 121.947 151.541 119.06 145.924 121.488L146.492 124.617C146.492 124.617 154.742 123.916 158.898 125.607C159.248 124.399 159.308 123.179 158.837 121.947Z" fill="#18315B"/>
<path d="M124.144 121.959C124.144 121.959 131.488 119.06 137.154 121.5L136.586 124.653C136.586 124.653 128.275 123.952 124.095 125.644C123.721 124.423 123.66 123.203 124.144 121.959Z" fill="#18315B"/>
<path d="M141.865 142.736C143.013 142.736 144.16 142.289 144.342 142.217C144.692 142.072 144.861 141.673 144.716 141.323C144.571 140.973 144.172 140.804 143.822 140.949C143.206 141.202 141.72 141.589 141.08 141.202C140.959 141.13 140.79 140.985 140.742 140.562C140.5 138.182 141.152 130.185 141.152 130.101C141.189 129.726 140.899 129.4 140.524 129.364C140.15 129.328 139.824 129.618 139.787 129.992C139.763 130.33 139.123 138.194 139.377 140.695C139.473 141.637 139.969 142.12 140.367 142.362C140.814 142.64 141.334 142.736 141.865 142.736Z" fill="#F97853"/>
<path d="M133.155 147.363C133.675 149.972 135.39 154.768 141.2 154.768C147.023 154.768 148.654 150.383 149.209 147.363H133.155Z" fill="white"/>
<path d="M167.692 119.362C167.426 124.943 166.894 131.925 165.831 137.518L162.775 137.3C162.775 137.3 163.512 132.589 163.85 129.509C164.189 126.441 164.768 120.691 162.147 119.978C159.538 119.265 161.072 112.718 157.424 109.879C153.788 107.029 145.707 104.528 140.331 107.826C134.968 111.124 128.867 109.3 126.391 109.879C123.915 110.447 120.556 113.854 121.462 117.043C122.381 120.22 119.65 122.164 118.986 125.462C118.322 128.76 120.436 137.639 120.436 137.639L117.524 138.231C116.208 131.031 116.014 123.759 116.111 118.565C116.208 113.262 119.107 108.418 123.721 105.796C136.224 98.7056 149.415 101.351 158.1 104.685C164.152 107.004 168.006 112.923 167.692 119.362Z" fill="#18315B"/>
<path d="M201.804 387.086C187.997 390.589 174.178 392.848 160.359 393.887C159.731 393.935 159.114 393.983 158.486 394.02C156.59 394.153 154.681 394.249 152.785 394.334C143.387 394.745 133.976 394.575 124.578 393.851C122.682 393.706 120.785 393.537 118.889 393.343C118.285 393.283 117.681 393.222 117.065 393.15C105.831 391.93 94.6085 389.901 83.3743 387.074C83.2656 376.721 83.3864 343.997 84.0266 308.507C84.0991 304.243 84.1837 299.942 84.2803 295.63C85.2708 248.857 87.1915 201.372 90.6584 196.624C93.9683 192.07 103.958 186.284 113.501 181.065C114.069 180.751 114.637 180.449 115.205 180.135C117.355 178.964 119.445 177.84 121.426 176.765C125.654 174.458 129.302 172.416 131.561 170.834V172.138C131.561 172.138 136.694 178.939 142.493 178.432C147.772 177.973 151.794 171.885 152.471 170.786C154.959 172.537 159.429 174.953 164.623 177.695C166.06 178.456 167.558 179.241 169.08 180.051C169.636 180.341 170.204 180.643 170.771 180.945C181.329 186.538 192.708 192.855 196.127 197.542C196.381 197.893 196.622 198.472 196.852 199.27C198.869 206.119 200.125 228.829 200.886 256.334C200.886 256.431 200.898 256.528 200.898 256.636C200.935 257.748 200.959 258.871 200.983 259.995C200.983 260.14 200.995 260.285 200.995 260.442C201.249 270.093 201.43 280.252 201.575 290.448C201.587 291.257 201.599 292.066 201.611 292.876C201.611 293.286 201.623 293.685 201.623 294.096C201.659 296.101 201.684 298.118 201.696 300.112C201.72 301.585 201.732 303.059 201.744 304.533C202.106 341.449 201.949 376.25 201.804 387.086Z" fill="#006BDE"/>
<path d="M200.959 260.019C197.637 254.595 194.061 249.05 190.703 244.146C190.691 244.134 190.679 244.122 190.679 244.11C189.265 242.056 187.888 240.111 186.584 238.336C186.56 238.299 186.535 238.275 186.511 238.239C186.1 237.683 185.702 237.14 185.303 236.608C185.243 236.512 185.194 236.427 185.158 236.318C185.05 235.968 185.17 235.569 185.484 235.328C185.895 235.026 186.463 235.098 186.765 235.509C190.8 240.86 195.97 248.543 200.85 256.359C200.85 256.455 200.862 256.552 200.862 256.661C200.898 257.772 200.934 258.883 200.959 260.019Z" fill="#264CBE"/>
<path d="M196.235 196.817C196.235 196.817 217.061 234.977 229.769 254.329C229.769 254.329 236.992 247.697 246.378 238.819C256.562 229.191 270.49 213.113 270.49 213.113L278.196 222.257C278.196 222.257 246.91 278.573 232.873 285.64C218.836 292.719 192.974 242.624 192.974 242.624L196.235 196.817Z" fill="#006BDE"/>
<path d="M108.029 347.235C108.017 347.235 108.005 347.235 107.993 347.235C107.473 347.211 107.062 346.776 107.087 346.256C108.174 315.441 92.1923 305.451 92.0352 305.354C91.5883 305.089 91.4433 304.509 91.7091 304.062C91.9748 303.615 92.5547 303.47 93.0016 303.736C93.1828 303.844 97.3987 306.405 101.494 312.989C105.226 318.992 109.563 329.647 108.971 346.329C108.947 346.836 108.536 347.235 108.029 347.235Z" fill="#264CBE"/>
<path d="M176.208 318.195C175.724 318.195 175.314 317.821 175.265 317.325C174.758 310.838 176.896 306.103 179.602 300.112C180.399 298.36 181.209 296.548 182.054 294.507C187.309 281.762 184.663 267.194 184.639 267.049C184.543 266.542 184.881 266.047 185.388 265.95C185.896 265.853 186.391 266.192 186.487 266.699C186.608 267.315 189.254 281.968 183.794 295.219C182.948 297.285 182.115 299.109 181.317 300.873C178.624 306.84 176.667 311.165 177.138 317.168C177.174 317.688 176.787 318.135 176.268 318.183C176.256 318.195 176.232 318.195 176.208 318.195Z" fill="#264CBE"/>
<path d="M121.401 176.777C121.8 179.809 122.392 183.747 123.044 188.217C123.237 189.545 123.443 190.923 123.636 192.336C124.288 196.95 124.965 201.975 125.545 207.061C125.702 208.426 125.847 209.791 125.98 211.156C126.487 216.181 126.874 221.182 127.006 225.833C127.055 227.234 127.067 228.611 127.067 229.94C127.055 233.492 126.861 236.741 126.427 239.531C126.149 241.295 125.907 243.01 125.69 244.702C125.508 246.103 125.351 247.468 125.206 248.821C124.663 254.063 124.385 258.944 124.301 263.546C124.276 264.947 124.276 266.312 124.288 267.653C124.325 272.872 124.627 277.74 125.062 282.378C125.194 283.768 125.327 285.133 125.472 286.474C126.04 291.535 126.716 296.355 127.369 301.114C127.562 302.479 127.743 303.832 127.912 305.197C128.19 307.372 128.456 309.558 128.685 311.744C128.927 314.064 129.084 316.794 129.157 319.802C129.193 321.118 129.217 322.495 129.217 323.921C129.241 328.427 129.12 333.428 128.915 338.646C128.855 340.011 128.806 341.388 128.734 342.789C128.504 347.645 128.19 352.634 127.852 357.551C127.755 358.94 127.647 360.317 127.55 361.694C127.175 366.816 126.753 371.817 126.318 376.456C126.185 377.869 126.064 379.246 125.931 380.575C125.436 385.685 124.965 390.227 124.554 393.863C133.964 394.587 143.362 394.745 152.773 394.334C152.99 390.48 153.594 384.247 154.186 376.927C154.295 375.586 154.403 374.209 154.512 372.796C154.862 368.133 155.188 363.156 155.394 358.131C155.454 356.754 155.503 355.377 155.539 353.987C155.684 348.974 155.684 343.985 155.466 339.31C155.406 337.897 155.321 336.508 155.213 335.155C155.104 333.778 154.971 332.425 154.814 331.132C154.355 327.46 154.186 323.933 154.21 320.454C154.21 319.077 154.246 317.7 154.319 316.323C154.536 311.539 155.056 306.755 155.66 301.67C155.817 300.317 155.986 298.952 156.155 297.551C156.698 293.033 157.266 288.237 157.713 282.982C157.834 281.642 157.943 280.265 158.039 278.851C158.353 274.345 158.559 269.514 158.595 264.235C158.607 262.87 158.595 261.493 158.583 260.067C158.535 255.501 158.341 250.621 157.967 245.366C157.931 244.895 157.906 244.424 157.87 243.953C157.798 243.035 157.737 242.105 157.701 241.174C157.459 236.379 157.52 231.438 157.798 226.522C157.87 225.145 157.967 223.755 158.063 222.378C158.438 217.45 158.994 212.569 159.634 207.895C159.827 206.505 160.02 205.128 160.226 203.775C160.999 198.654 161.82 193.822 162.581 189.509C162.835 188.096 163.077 186.731 163.306 185.426C163.826 182.515 164.272 179.918 164.599 177.719C159.416 174.977 154.947 172.561 152.446 170.81C151.77 171.909 147.747 177.997 142.468 178.456C136.682 178.964 131.536 172.163 131.536 172.163V170.858C129.277 172.428 125.629 174.482 121.401 176.777Z" fill="white"/>
<path d="M123.044 188.217C123.237 189.546 123.443 190.923 123.636 192.336C128.83 192.457 134.93 191.672 142.287 189.98C150.163 188.168 157.097 188.483 162.581 189.497C162.835 188.084 163.076 186.719 163.306 185.414C157.375 184.315 149.885 184.001 141.369 185.97C134.109 187.649 128.057 188.41 123.044 188.217Z" fill="#E3E3E3"/>
<path d="M125.545 207.061C125.702 208.426 125.847 209.791 125.98 211.156C130.643 211.035 136.006 210.25 142.275 208.801C148.786 207.303 154.669 207.267 159.622 207.883C159.815 206.493 160.009 205.116 160.214 203.763C154.85 203.099 148.46 203.159 141.357 204.79C135.269 206.204 130.039 206.965 125.545 207.061Z" fill="#E3E3E3"/>
<path d="M127.019 225.833C127.067 227.234 127.079 228.612 127.079 229.94C131.488 229.735 136.501 228.962 142.287 227.633C148.013 226.316 153.244 226.123 157.786 226.522C157.858 225.145 157.955 223.756 158.052 222.378C153.159 221.98 147.53 222.209 141.357 223.623C135.921 224.879 131.174 225.616 127.019 225.833Z" fill="#E3E3E3"/>
<path d="M125.219 248.821C130.063 248.76 135.668 247.975 142.287 246.453C148.086 245.112 153.377 244.943 157.967 245.354C157.931 244.883 157.907 244.412 157.87 243.941C157.798 243.023 157.737 242.092 157.701 241.162C152.894 240.8 147.385 241.054 141.369 242.443C135.354 243.832 130.171 244.593 125.714 244.702C125.521 246.103 125.364 247.48 125.219 248.821Z" fill="#E3E3E3"/>
<path d="M124.3 267.653C129.349 267.69 135.244 266.916 142.275 265.286C148.351 263.884 153.859 263.752 158.582 264.235C158.594 262.87 158.582 261.493 158.57 260.067C153.557 259.608 147.747 259.801 141.357 261.275C134.701 262.809 129.071 263.582 124.312 263.546C124.3 264.947 124.288 266.312 124.3 267.653Z" fill="#E3E3E3"/>
<path d="M125.073 282.367C125.206 283.756 125.339 285.121 125.484 286.462C130.268 286.389 135.788 285.604 142.275 284.106C147.976 282.789 153.183 282.596 157.701 282.971C157.822 281.63 157.93 280.253 158.027 278.839C153.135 278.441 147.517 278.67 141.345 280.083C135.063 281.545 129.664 282.318 125.073 282.367Z" fill="#E3E3E3"/>
<path d="M127.381 301.114C127.574 302.479 127.755 303.832 127.924 305.197C132.116 304.931 136.851 304.183 142.275 302.938C147.131 301.815 151.625 301.513 155.648 301.67C155.805 300.317 155.974 298.952 156.143 297.551C151.71 297.345 146.733 297.684 141.345 298.928C136.078 300.136 131.452 300.873 127.381 301.114Z" fill="#E3E3E3"/>
<path d="M129.181 319.802C129.217 321.118 129.241 322.496 129.241 323.921C133.107 323.595 137.419 322.882 142.287 321.747C146.563 320.768 150.574 320.406 154.21 320.442C154.21 319.065 154.246 317.688 154.319 316.311C150.369 316.274 146.02 316.661 141.369 317.736C136.839 318.787 132.805 319.476 129.181 319.802Z" fill="#E3E3E3"/>
<path d="M128.746 342.79C132.732 342.488 137.214 341.751 142.275 340.579C147.047 339.48 151.48 339.166 155.467 339.323C155.406 337.909 155.322 336.52 155.213 335.167C151.021 335.046 146.37 335.409 141.357 336.568C136.743 337.631 132.612 338.332 128.927 338.646C128.879 340.011 128.819 341.4 128.746 342.79Z" fill="#E3E3E3"/>
<path d="M127.562 361.694C131.85 361.453 136.706 360.692 142.287 359.411C147.034 358.312 151.443 357.998 155.393 358.143C155.454 356.766 155.502 355.389 155.538 354C151.262 353.855 146.503 354.205 141.357 355.401C136.295 356.573 131.814 357.297 127.864 357.563C127.767 358.94 127.658 360.317 127.562 361.694Z" fill="#E3E3E3"/>
<path d="M125.943 380.587C130.618 380.466 135.994 379.681 142.275 378.232C146.551 377.253 150.55 376.891 154.186 376.927C154.295 375.586 154.403 374.209 154.512 372.796C150.502 372.735 146.092 373.122 141.357 374.209C135.619 375.538 130.642 376.287 126.33 376.456C126.209 377.869 126.076 379.246 125.943 380.587Z" fill="#E3E3E3"/>
<path d="M158.475 394.032C159.103 393.996 159.719 393.947 160.347 393.899C164.055 372.107 161.917 340.108 161.12 330.311C160.299 320.128 161.881 307.045 165.469 294.41C168.247 284.601 166.544 261.843 165.179 243.566C164.792 238.432 164.43 233.588 164.213 229.602C163.512 216.737 168.175 192.916 170.736 180.981C170.168 180.679 169.6 180.377 169.044 180.087C166.471 191.901 161.64 216.266 162.376 229.711C162.594 233.709 162.968 238.565 163.343 243.711C164.708 261.855 166.399 284.42 163.705 293.915C160.057 306.755 158.45 320.079 159.296 330.468C160.093 340.265 162.243 372.457 158.475 394.032Z" fill="#264CBE"/>
<path d="M120.496 305.341C122.67 318.738 121.993 327.447 121.196 337.522C120.942 340.783 120.677 344.142 120.483 347.862C119.904 359.519 117.935 383.014 117.053 393.161C117.657 393.234 118.261 393.294 118.877 393.354C119.747 383.195 121.728 359.652 122.32 347.947C122.501 344.262 122.767 340.904 123.02 337.667C123.817 327.471 124.518 318.665 122.307 305.051C121.836 302.128 121.329 299.156 120.834 296.209C118.369 281.605 115.809 266.505 117.017 259.269C117.306 257.505 117.681 255.5 118.092 253.374C119.734 244.64 121.776 233.781 121.136 224.346C120.496 214.997 116.666 189.69 115.193 180.159C114.625 180.461 114.057 180.775 113.489 181.089C115.023 191.067 118.684 215.395 119.312 224.479C119.94 233.672 117.923 244.411 116.304 253.048C115.905 255.186 115.519 257.191 115.229 258.979C113.972 266.517 116.437 281.097 119.046 296.535C119.529 299.458 120.024 302.418 120.496 305.341Z" fill="#264CBE"/>
<path d="M84.4739 212.171C84.4739 212.171 65.8227 274.358 61.2082 296.524C56.5937 318.69 56.2313 364.75 56.2313 364.75C56.2313 364.75 48.0775 381.674 47.8842 389.2C47.6789 397.233 51.8947 403.611 51.4115 408.866C50.9283 414.12 57.3306 411.27 55.5186 400.627C53.7067 389.985 58.8406 380.345 61.0512 380.659C63.2618 380.974 59.215 392.28 61.1841 396.351C63.1531 400.422 65.6898 392.51 68.2266 387.702C70.8479 382.713 70.7029 371.829 69.507 364.062C68.3111 356.295 82.3961 309.099 82.4686 295.425L100.298 235.159C100.298 235.171 94.4034 210.021 84.4739 212.171Z" fill="#FFA681"/>
<path d="M102.581 233.661C101.953 237.659 99.7425 244.521 96.8796 253.145C96.638 253.87 96.3843 254.619 96.1427 255.368C96.1307 255.404 96.1186 255.441 96.1065 255.477C95.3938 257.627 94.6449 259.874 93.8718 262.193C93.8718 262.205 93.8597 262.217 93.8597 262.229C90.6948 271.833 87.1916 282.813 84.2563 294.108C83.2416 297.973 82.2993 301.875 81.4658 305.765C80.3907 310.73 79.4847 315.682 78.8204 320.526C76.4406 337.982 71.8745 360.1 71.8745 360.1C65.1823 362.842 54.7333 359.218 54.7333 359.218C54.7333 359.218 54.4675 327.364 55.9533 314.994C57.8016 299.689 60.145 288.805 63.0563 276.29C71.0651 241.875 85.1622 208.209 89.0278 199.27C89.3298 198.557 89.5714 198.001 89.7405 197.615H93.0624C99.6459 201.806 104.285 222.898 102.581 233.661Z" fill="#006BDE"/>
<path d="M54.2021 352.864L54.7216 360.196C54.7216 360.196 64.6632 363.422 72.1165 361.151L74.0855 354.616C66.9101 354.99 60.2904 354.809 54.2021 352.864Z" fill="#009CF8"/>
<path d="M96.8796 253.145C96.8796 253.254 96.8554 253.363 96.8192 253.472C96.5897 254.088 96.3602 254.728 96.1427 255.38C96.1307 255.417 96.1186 255.453 96.1065 255.489C95.3696 257.567 94.6328 259.826 93.8718 262.205C93.8718 262.217 93.8597 262.229 93.8597 262.242C89.97 274.623 86.0078 290.194 84.1838 300.136C84.2079 298.131 84.22 296.125 84.2563 294.12C83.2416 297.986 82.2993 301.887 81.4658 305.777C81.8403 302.129 82.8792 296.669 84.3046 290.472C87.1796 277.945 91.5887 262.423 95.0918 252.844C95.2609 252.372 95.7924 252.131 96.2635 252.3C96.6501 252.433 96.8796 252.771 96.8796 253.145Z" fill="#264CBE"/>
<path d="M430.451 417.599H474.494C474.349 414.543 474.204 411.62 474.059 408.854C473.286 393.766 472.633 383.498 472.633 383.498L436.805 385.093L433.833 385.226L428.566 385.467C428.566 385.467 429.074 394.648 429.871 408.105C430.064 411.076 430.258 414.253 430.451 417.599Z" fill="#18315B"/>
<path d="M433.857 385.226L428.59 385.467C428.59 385.467 429.097 394.648 429.894 408.105C443.653 409.252 458.681 409.723 474.082 408.854C473.309 393.766 472.657 383.498 472.657 383.498L436.828 385.093L433.857 385.226Z" fill="#000B29"/>
<path d="M438.653 417.599C437.844 403.635 437.191 391.712 436.829 385.093L433.857 385.226C434.22 391.821 434.872 403.684 435.681 417.599H438.653Z" fill="#000B29"/>
<path d="M417.526 417.599C417.755 413.818 417.961 410.231 418.154 406.921C418.915 394.104 419.386 385.455 419.386 385.455L413.672 385.202L410.701 385.069L375.319 383.498C375.319 383.498 374.932 389.623 374.401 399.347C374.123 404.529 373.797 410.75 373.471 417.599H417.526Z" fill="#18315B"/>
<path d="M374.413 399.347C384.017 401.606 399.503 404.771 418.166 406.921C418.927 394.104 419.398 385.455 419.398 385.455L413.684 385.202L410.713 385.069L375.331 383.498C375.331 383.498 374.945 389.623 374.413 399.347Z" fill="#000B29"/>
<path d="M411.86 417.599C412.669 403.671 413.322 391.797 413.684 385.201L410.724 385.069C410.362 391.688 409.698 403.623 408.9 417.599H411.86Z" fill="#000B29"/>
<path d="M479.048 390.359C470.073 392.824 461.098 394.696 452.134 395.94C449.018 396.375 445.901 396.75 442.773 397.028C438.569 397.414 434.365 397.68 430.161 397.813C423.215 398.03 416.257 397.873 409.312 397.354C395.867 396.375 382.434 394.02 368.989 390.347C368.868 377.809 369.05 332.86 369.992 289.505C370.04 287.561 370.076 285.616 370.125 283.683C370.137 283.272 370.149 282.862 370.149 282.451C370.161 282.004 370.173 281.557 370.185 281.11C370.221 279.733 370.258 278.368 370.282 277.003C370.354 274.212 370.427 271.458 370.499 268.716C370.548 267.085 370.596 265.455 370.644 263.848C370.656 263.51 370.668 263.184 370.68 262.845C370.717 261.782 370.753 260.731 370.777 259.681C370.789 259.354 370.801 259.028 370.813 258.702C370.85 257.736 370.874 256.769 370.91 255.815C370.946 255.006 370.97 254.196 370.995 253.399C372.033 224.154 373.555 201.082 375.742 197.832C379.438 192.324 392.025 185.003 402.148 179.036C405.76 176.922 410.061 174.711 412.525 173.081C416.125 175.98 418.734 178.589 424.061 178.408C430.028 178.202 431.49 174.615 433.773 171.547C435.162 172.452 438.69 175.34 440.526 176.415C442.096 177.345 443.787 178.323 445.563 179.338C448.305 180.908 451.216 182.575 454.103 184.267C458.38 186.779 462.595 189.376 466.099 191.865C469.59 194.341 472.368 196.721 473.733 198.774C475.714 201.746 476.995 220.989 477.816 246.308C477.852 247.19 477.876 248.096 477.913 249.002C477.913 249.111 477.913 249.219 477.913 249.328C477.949 250.246 477.973 251.188 477.997 252.131C478.082 254.981 478.154 257.893 478.239 260.852C478.251 261.48 478.275 262.109 478.275 262.737C478.287 263.208 478.299 263.679 478.311 264.15C478.335 265.37 478.372 266.59 478.396 267.822C478.408 268.064 478.408 268.318 478.408 268.559C478.48 271.809 478.541 275.106 478.601 278.428C478.625 279.395 478.637 280.373 478.649 281.352C479.386 326.941 479.217 376.891 479.048 390.359Z" fill="#006BDE"/>
<path d="M478.638 281.364L464.432 295.775L451.192 282.354L437.953 295.775L424.665 282.294L411.378 295.775L398.005 282.209L384.633 295.775L370.186 281.122C370.222 279.745 370.258 278.38 370.282 277.015C370.355 274.225 370.427 271.47 370.5 268.728L384.621 254.402L397.993 267.967L411.365 254.402L424.653 267.883L437.941 254.402L451.18 267.822L464.42 254.402L478.396 268.559C478.469 271.809 478.529 275.106 478.589 278.428C478.614 279.407 478.626 280.385 478.638 281.364Z" fill="#264CBE"/>
<path d="M454.116 355.642C435.09 355.558 418.843 346.896 408.575 339.649C397.461 331.809 390.733 323.872 390.66 323.788C390.334 323.401 390.383 322.821 390.769 322.495C391.156 322.169 391.736 322.217 392.062 322.604C392.122 322.677 398.742 330.468 409.662 338.175C419.712 345.254 435.585 353.722 454.116 353.794C454.623 353.794 455.034 354.205 455.022 354.712C455.034 355.244 454.623 355.642 454.116 355.642Z" fill="#264CBE"/>
<path d="M442.253 344.396C426.054 341.207 411.715 328.801 411.063 328.233C410.676 327.895 410.64 327.327 410.978 326.941C411.317 326.554 411.884 326.518 412.271 326.856C412.44 327.001 429.316 341.593 446.505 343.164C447.012 343.2 447.375 343.659 447.339 344.154C447.29 344.662 446.843 345.024 446.348 344.988C444.959 344.855 443.594 344.662 442.253 344.396Z" fill="#264CBE"/>
<path d="M409.806 203.606C409.372 203.606 408.997 203.304 408.912 202.857C408.816 202.362 409.142 201.879 409.637 201.782C432.83 197.385 439.825 182.455 439.897 182.31C440.102 181.851 440.646 181.645 441.105 181.851C441.564 182.056 441.769 182.599 441.564 183.059C441.274 183.711 434.099 199.004 409.988 203.582C409.915 203.594 409.855 203.606 409.806 203.606Z" fill="#264CBE"/>
<path d="M381.504 243.772C381.48 243.88 381.432 243.977 381.383 244.074C381.033 244.629 380.671 245.209 380.308 245.789C380.284 245.825 380.272 245.849 380.248 245.886C379.088 247.758 377.88 249.811 376.636 251.974C376.636 251.986 376.624 251.998 376.612 252.01C374.667 255.416 372.65 259.113 370.681 262.858C370.717 261.795 370.753 260.744 370.777 259.693C370.789 259.367 370.801 259.04 370.814 258.714C373.991 252.807 377.168 247.287 379.825 243.095C380.103 242.66 380.659 242.539 381.093 242.817C381.432 243.023 381.577 243.409 381.504 243.772Z" fill="#264CBE"/>
<path d="M498.387 209.839C498.387 209.839 528.043 200.309 536.825 180.848C539.361 175.207 518.451 117.973 518.451 117.973L508.353 118.456C508.353 118.456 511.228 138.315 512.979 149.561C514.417 158.802 516.736 169.855 517.509 173.491C517.678 174.277 517.775 174.724 517.775 174.724C517.28 174.808 516.784 174.905 516.277 175.001C502.421 177.816 484.725 186.84 484.725 186.84L498.387 209.839Z" fill="#FFA681"/>
<path d="M525.228 180.208C525.651 180.51 526.255 180.425 526.557 180.002C526.871 179.568 526.774 178.976 526.351 178.674C524.189 177.103 520.94 175.267 517.521 173.491C517.69 174.277 517.787 174.724 517.787 174.724C517.292 174.808 516.796 174.905 516.289 175.001C519.756 176.789 523.09 178.662 525.228 180.208Z" fill="#F97853"/>
<path d="M453.004 183.663C453.004 183.663 444.028 204.718 466.871 216.435C482.684 224.553 518.693 203.365 518.693 203.365L505.853 176.113C505.853 176.113 472.899 189.702 453.004 183.663Z" fill="#006BDE"/>
<path d="M513.282 85.7923C512.388 86.4204 512.569 90.286 512.968 93.934C512.847 93.9582 512.714 93.9703 512.581 93.9944C511.518 89.1384 509.404 80.8637 507.592 82.4462C506.409 83.485 507.991 90.6121 509.078 94.8763C508.861 94.9487 508.631 95.0212 508.414 95.0937C507.049 90.0323 504.113 80.2839 502.169 82.1804C500.864 83.4488 503.364 92.0254 504.754 96.4104C504.56 96.4829 504.367 96.5553 504.186 96.6399C502.857 92.3878 500.018 84.3548 498.074 86.2392C496.31 87.9545 501.359 100.095 501.359 100.095L502.688 104.866C502.688 104.866 501.118 105.543 498.665 102.764C496.213 99.986 493.278 99.5028 495.319 103.513C497.627 108.055 501.033 111.305 502.531 114.518C504.029 117.731 508.752 118.794 508.752 118.794L518.235 118.335C518.235 118.335 520.071 102.317 516.531 94.6709C515.903 90.1289 514.84 84.7051 513.282 85.7923Z" fill="#FFA681"/>
<path d="M395.999 122.744C395.999 138.895 405.941 150.02 422.079 150.02C438.23 150.02 449.476 138.061 449.476 121.911C449.476 117.453 448.751 113.298 447.35 109.626C447.266 109.408 447.181 109.191 447.096 108.973C446.927 108.551 446.746 108.14 446.553 107.729C446.275 107.101 445.961 106.497 445.623 105.905C441.419 98.3431 433.881 93.5354 423.758 93.5354C404.407 93.5354 395.999 106.606 395.999 122.744Z" fill="#18315B"/>
<path d="M399.623 129.702C399.623 129.702 395.142 123.723 391.808 128.663C388.474 133.604 393.185 148.22 401.351 144.645L399.623 129.702Z" fill="#F97853"/>
<path d="M399.563 140.139C399.261 140.139 398.983 139.934 398.898 139.632C397.63 135.126 392.955 133.29 392.919 133.278C392.569 133.145 392.387 132.746 392.52 132.384C392.653 132.034 393.052 131.852 393.414 131.985C393.632 132.07 398.778 134.063 400.239 139.257C400.348 139.62 400.13 140.006 399.756 140.103C399.696 140.127 399.623 140.139 399.563 140.139Z" fill="#EA5143"/>
<path d="M394.852 137.868C394.719 137.868 394.599 137.832 394.478 137.759C394.152 137.554 394.067 137.131 394.272 136.805C394.309 136.757 395.13 135.488 396.858 134.715C397.208 134.558 397.619 134.715 397.764 135.066C397.921 135.416 397.764 135.827 397.413 135.972C396.072 136.576 395.432 137.542 395.42 137.542C395.299 137.747 395.082 137.868 394.852 137.868Z" fill="#EA5143"/>
<path d="M445.852 129.702C445.852 129.702 450.334 123.723 453.668 128.663C457.002 133.604 452.291 148.22 444.125 144.645L445.852 129.702Z" fill="#F97853"/>
<path d="M445.9 140.139C446.202 140.139 446.48 139.934 446.565 139.632C447.833 135.126 452.508 133.29 452.544 133.278C452.895 133.145 453.076 132.746 452.943 132.384C452.81 132.034 452.411 131.852 452.049 131.985C451.832 132.07 446.686 134.063 445.224 139.257C445.127 139.62 445.333 140.006 445.707 140.103C445.78 140.127 445.84 140.139 445.9 140.139Z" fill="#EA5143"/>
<path d="M450.624 137.868C450.756 137.868 450.877 137.832 450.998 137.759C451.324 137.554 451.409 137.131 451.203 136.805C451.167 136.757 450.346 135.488 448.618 134.715C448.268 134.558 447.857 134.715 447.712 135.066C447.555 135.416 447.712 135.827 448.063 135.972C449.403 136.576 450.044 137.542 450.056 137.542C450.177 137.747 450.394 137.868 450.624 137.868Z" fill="#EA5143"/>
<path d="M433.773 157.039V171.559C433.773 171.559 429.436 178.951 423.577 179.459C417.731 179.966 412.524 173.093 412.524 173.093V158.053L433.773 157.039Z" fill="#FFA681"/>
<path d="M433.773 157.039V163.489C429.847 167.85 422.865 168.937 412.524 167.415V158.065L433.773 157.039Z" fill="#F97853"/>
<path d="M449.09 119.736C448.825 125.378 448.281 132.444 447.206 138.086C446.94 139.499 446.638 140.816 446.3 141.999C443.244 152.702 435.597 171.063 414.192 163.417C404.733 160.047 400.361 149.513 398.404 138.798C397.075 131.526 396.882 124.182 396.978 118.927C397.087 113.564 400.01 108.671 404.673 106.026C417.309 98.8626 430.645 101.532 439.414 104.903C445.503 107.246 449.404 113.225 449.09 119.736Z" fill="#FFA681"/>
<path d="M413.564 131.599C413.564 133.145 412.767 134.401 411.776 134.401C410.786 134.401 409.988 133.145 409.988 131.599C409.988 130.053 410.786 128.796 411.776 128.796C412.755 128.784 413.564 130.04 413.564 131.599Z" fill="#18315B"/>
<path d="M434.594 131.538C434.594 133.085 433.797 134.341 432.806 134.341C431.816 134.341 431.019 133.085 431.019 131.538C431.019 129.992 431.816 128.736 432.806 128.736C433.797 128.724 434.594 129.98 434.594 131.538Z" fill="#18315B"/>
<path d="M438.629 121.887C438.629 121.887 433 119.664 428.663 121.536L429.098 123.952C429.098 123.952 435.464 123.409 438.665 124.713C438.955 123.783 438.991 122.841 438.629 121.887Z" fill="#18315B"/>
<path d="M405.82 121.887C405.82 121.887 411.449 119.664 415.786 121.536L415.351 123.952C415.351 123.952 408.985 123.409 405.784 124.713C405.494 123.783 405.446 122.841 405.82 121.887Z" fill="#18315B"/>
<path d="M422.974 143.364C424.134 143.364 425.293 142.905 425.474 142.833C425.825 142.688 425.994 142.289 425.849 141.939C425.704 141.589 425.305 141.42 424.955 141.565C424.327 141.818 422.841 142.217 422.189 141.83C422.068 141.758 421.887 141.601 421.85 141.19C421.597 138.786 422.261 130.705 422.273 130.62C422.309 130.246 422.02 129.908 421.645 129.871C421.259 129.835 420.932 130.125 420.896 130.499C420.872 130.838 420.22 138.786 420.485 141.323C420.582 142.277 421.089 142.76 421.488 143.002C421.923 143.268 422.442 143.364 422.974 143.364Z" fill="#F97853"/>
<path d="M413.708 146.868C414.856 150.854 418.117 154.816 422.611 154.876C427.092 154.816 430.354 150.854 431.502 146.868H413.708Z" fill="white"/>
<path d="M422.225 159.201C424.012 159.201 425.522 158.295 425.583 158.259C425.909 158.065 426.018 157.643 425.812 157.317C425.619 156.99 425.196 156.882 424.87 157.087C424.858 157.099 423.614 157.836 422.225 157.836C420.944 157.836 419.724 157.099 419.712 157.099C419.386 156.894 418.963 157.002 418.758 157.329C418.552 157.655 418.661 158.078 418.987 158.283C419.048 158.295 420.545 159.201 422.225 159.201Z" fill="#F97853"/>
<path d="M448.365 129.823H445.237C445.587 126.682 446.082 121.15 443.497 120.365C435.343 117.864 445.913 112.102 442.229 109.227C438.556 106.352 429.4 107.584 423.034 107.379C416.632 107.173 406.328 107.258 403.839 107.838C401.339 108.406 402.704 112.573 403.622 115.786C404.552 119 400.554 122.563 399.877 125.897C399.684 126.851 399.72 128.277 399.877 129.811H397.268C396.954 125.752 396.917 121.983 396.966 118.915C397.075 113.552 399.998 108.659 404.661 106.014C417.296 98.8505 430.632 101.52 439.402 104.89C445.49 107.234 449.392 113.213 449.078 119.724C448.945 122.829 448.716 126.344 448.365 129.823Z" fill="#18315B"/>
<path d="M411.462 139.728C407.15 139.728 403.646 136.225 403.646 131.913C403.646 127.6 407.15 124.097 411.462 124.097C415.775 124.097 419.278 127.6 419.278 131.913C419.266 136.213 415.762 139.728 411.462 139.728ZM411.462 125.317C407.826 125.317 404.867 128.277 404.867 131.913C404.867 135.549 407.826 138.508 411.462 138.508C415.098 138.508 418.058 135.549 418.058 131.913C418.058 128.277 415.098 125.317 411.462 125.317Z" fill="white"/>
<path d="M432.807 139.728C428.494 139.728 424.991 136.225 424.991 131.913C424.991 127.6 428.494 124.097 432.807 124.097C437.119 124.097 440.622 127.6 440.622 131.913C440.622 136.213 437.119 139.728 432.807 139.728ZM432.807 125.317C429.171 125.317 426.211 128.277 426.211 131.913C426.211 135.549 429.171 138.508 432.807 138.508C436.443 138.508 439.402 135.549 439.402 131.913C439.402 128.277 436.443 125.317 432.807 125.317Z" fill="white"/>
<path d="M404.963 129.4C404.806 129.4 404.649 129.34 404.528 129.219C404.492 129.183 400.94 125.74 396.29 126.827C395.963 126.9 395.637 126.694 395.553 126.368C395.48 126.042 395.686 125.716 396.012 125.631C401.339 124.387 405.229 128.18 405.386 128.349C405.627 128.591 405.627 128.977 405.386 129.207C405.277 129.34 405.12 129.4 404.963 129.4Z" fill="white"/>
<path d="M439.451 129.4C439.258 129.4 439.052 129.304 438.944 129.122C438.762 128.845 438.835 128.458 439.125 128.277C439.354 128.12 444.887 124.556 449.586 125.329C449.912 125.39 450.141 125.692 450.093 126.03C450.033 126.356 449.731 126.586 449.393 126.537C445.165 125.837 439.849 129.267 439.789 129.304C439.68 129.364 439.56 129.4 439.451 129.4Z" fill="white"/>
<path d="M425.426 130.161C425.413 130.137 423.964 128.18 422.067 128.18C420.183 128.18 418.878 130.137 418.866 130.149L417.852 129.485C417.924 129.376 419.531 126.96 422.079 126.96C424.616 126.96 426.356 129.34 426.428 129.436L425.426 130.161Z" fill="white"/>
<path d="M378.93 242.624C378.93 242.624 370.704 258.557 361.016 271.181C358.153 274.901 355.17 278.344 352.234 280.989C347.475 285.29 342.824 287.537 339.043 285.628C325.006 278.549 293.72 222.245 293.72 222.245L301.427 213.101C301.427 213.101 315.355 229.179 325.538 238.807C334.936 247.685 342.148 254.317 342.148 254.317C343.452 252.336 344.829 250.174 346.279 247.879C347.813 245.439 349.395 242.866 351.014 240.208C362.744 220.953 375.753 197.844 375.753 197.844L378.93 242.624Z" fill="#FFA681"/>
<path d="M361.004 271.181C358.141 274.901 355.158 278.344 352.222 280.989L346.255 247.879C347.789 245.439 349.371 242.866 350.99 240.208L361.004 271.181Z" fill="#F97853"/>
<path d="M375.742 197.844L347.62 242.08L357.054 280.989L380.332 243.095C380.332 243.095 383.147 217.16 375.742 197.844Z" fill="#006BDE"/>
<path d="M340.372 417.599C338.366 406.462 336.385 393.911 334.585 381.722C334.187 379.029 333.8 376.347 333.426 373.714C331.988 363.615 330.696 354.072 329.657 346.147C329.258 343.14 328.908 340.361 328.582 337.885C327.579 329.973 326.987 325.068 326.987 325.068L282.57 326.747L238.02 325.068C238.02 325.068 236.872 334.792 235.036 348.877C234.698 351.438 234.348 354.144 233.961 356.971C232.97 364.364 231.847 372.53 230.627 380.889C230.615 381.01 230.591 381.13 230.567 381.251C230.18 383.86 229.806 386.482 229.395 389.103C229.395 389.139 229.383 389.176 229.383 389.212C228.428 395.554 227.426 401.884 226.411 407.972C225.988 410.484 225.566 412.961 225.143 415.365C225.01 416.113 224.877 416.85 224.744 417.587H340.372V417.599Z" fill="#006BDE"/>
<path d="M248.264 338.404C248.264 340.712 246.392 342.596 244.073 342.596C241.765 342.596 239.881 340.724 239.881 338.404C239.881 336.097 241.753 334.213 244.073 334.213C246.392 334.225 248.264 336.097 248.264 338.404Z" fill="#264CBE"/>
<path d="M258.653 354.628C258.653 356.935 256.781 358.819 254.461 358.819C252.154 358.819 250.27 356.947 250.27 354.628C250.27 352.32 252.142 350.436 254.461 350.436C256.781 350.436 258.653 352.308 258.653 354.628Z" fill="#264CBE"/>
<path d="M279.091 346.256C279.091 348.563 277.219 350.448 274.9 350.448C272.592 350.448 270.708 348.576 270.708 346.256C270.708 343.949 272.58 342.065 274.9 342.065C277.207 342.065 279.091 343.937 279.091 346.256Z" fill="#264CBE"/>
<path d="M246.827 371.841C246.827 374.148 244.954 376.033 242.635 376.033C240.328 376.033 238.443 374.161 238.443 371.841C238.443 369.534 240.316 367.65 242.635 367.65C244.954 367.662 246.827 369.534 246.827 371.841Z" fill="#264CBE"/>
<path d="M272.363 370.053C272.363 372.361 270.49 374.245 268.171 374.245C265.864 374.245 263.979 372.373 263.979 370.053C263.979 367.734 265.852 365.862 268.171 365.862C270.49 365.874 272.363 367.746 272.363 370.053Z" fill="#264CBE"/>
<path d="M237.755 352.803C237.755 354.978 236.088 356.778 233.962 356.971C234.336 354.144 234.699 351.438 235.037 348.878C236.632 349.469 237.755 351.004 237.755 352.803Z" fill="#264CBE"/>
<path d="M313.99 394.648C313.99 396.955 312.117 398.84 309.798 398.84C307.491 398.84 305.606 396.967 305.606 394.648C305.606 392.341 307.479 390.456 309.798 390.456C312.117 390.468 313.99 392.341 313.99 394.648Z" fill="#264CBE"/>
<path d="M312.008 371.841C312.008 374.148 310.136 376.033 307.817 376.033C305.509 376.033 303.625 374.161 303.625 371.841C303.625 369.534 305.497 367.65 307.817 367.65C310.136 367.662 312.008 369.534 312.008 371.841Z" fill="#264CBE"/>
<path d="M334.586 381.723C334.079 381.94 333.523 382.049 332.943 382.049C330.636 382.049 328.764 380.176 328.764 377.869C328.764 375.562 330.636 373.689 332.943 373.689C333.112 373.689 333.269 373.702 333.426 373.726C333.801 376.347 334.187 379.029 334.586 381.723Z" fill="#264CBE"/>
<path d="M316.201 411.366C316.201 413.673 314.328 415.558 312.009 415.558C309.702 415.558 307.817 413.686 307.817 411.366C307.817 409.059 309.69 407.175 312.009 407.175C314.316 407.175 316.201 409.047 316.201 411.366Z" fill="#264CBE"/>
<path d="M334.103 404.686C334.103 406.993 332.231 408.878 329.911 408.878C327.604 408.878 325.72 407.005 325.72 404.686C325.72 402.379 327.592 400.494 329.911 400.494C332.231 400.494 334.103 402.367 334.103 404.686Z" fill="#264CBE"/>
<path d="M296.836 417.599C296.087 416.5 294.819 415.775 293.382 415.775C291.944 415.775 290.688 416.5 289.927 417.599H296.836Z" fill="#264CBE"/>
<path d="M244.072 398.296C244.072 400.603 242.199 402.488 239.88 402.488C237.573 402.488 235.688 400.615 235.688 398.296C235.688 395.989 237.561 394.104 239.88 394.104C242.199 394.104 244.072 395.977 244.072 398.296Z" fill="#264CBE"/>
<path d="M233.032 385.069C233.032 387.195 231.449 388.946 229.396 389.212C229.408 389.176 229.408 389.139 229.408 389.103C229.806 386.482 230.193 383.861 230.579 381.251C232.017 381.916 233.032 383.377 233.032 385.069Z" fill="#264CBE"/>
<path d="M228.139 411.354C228.139 413.251 226.883 414.845 225.155 415.365C225.578 412.961 226.001 410.484 226.424 407.972C227.463 408.745 228.139 409.977 228.139 411.354Z" fill="#264CBE"/>
<path d="M254.461 413.13C254.461 415.437 252.588 417.322 250.269 417.322C247.962 417.322 246.077 415.449 246.077 413.13C246.077 410.811 247.95 408.938 250.269 408.938C252.588 408.95 254.461 410.823 254.461 413.13Z" fill="#264CBE"/>
<path d="M276.554 409.856C276.554 412.164 274.682 414.048 272.363 414.048C270.043 414.048 268.171 412.176 268.171 409.856C268.171 407.549 270.043 405.665 272.363 405.665C274.682 405.665 276.554 407.537 276.554 409.856Z" fill="#264CBE"/>
<path d="M260.791 389.272C260.791 391.58 258.918 393.464 256.599 393.464C254.292 393.464 252.407 391.592 252.407 389.272C252.407 386.965 254.28 385.081 256.599 385.081C258.918 385.081 260.791 386.965 260.791 389.272Z" fill="#264CBE"/>
<path d="M283.271 385.081C283.271 387.388 281.399 389.272 279.079 389.272C276.772 389.272 274.888 387.4 274.888 385.081C274.888 382.761 276.76 380.889 279.079 380.889C281.399 380.901 283.271 382.773 283.271 385.081Z" fill="#264CBE"/>
<path d="M293.394 362.999C293.394 365.306 291.522 367.19 289.202 367.19C286.895 367.19 285.011 365.318 285.011 362.999C285.011 360.692 286.883 358.807 289.202 358.807C291.522 358.807 293.394 360.679 293.394 362.999Z" fill="#264CBE"/>
<path d="M329.658 346.148C329.368 346.22 329.066 346.244 328.764 346.244C326.444 346.244 324.584 344.372 324.584 342.065C324.584 339.818 326.36 337.97 328.594 337.885C328.909 340.361 329.259 343.14 329.658 346.148Z" fill="#264CBE"/>
<path d="M307.83 346.256C307.83 348.563 305.957 350.448 303.638 350.448C301.331 350.448 299.446 348.576 299.446 346.256C299.446 343.949 301.319 342.065 303.638 342.065C305.945 342.065 307.83 343.937 307.83 346.256Z" fill="#264CBE"/>
<path d="M323.159 361.175C323.159 363.482 321.286 365.366 318.967 365.366C316.648 365.366 314.775 363.494 314.775 361.175C314.775 358.867 316.648 356.983 318.967 356.983C321.286 356.983 323.159 358.855 323.159 361.175Z" fill="#264CBE"/>
<path d="M297.574 398.296C297.574 400.603 295.701 402.488 293.382 402.488C291.075 402.488 289.19 400.615 289.19 398.296C289.19 395.989 291.063 394.104 293.382 394.104C295.701 394.104 297.574 395.977 297.574 398.296Z" fill="#264CBE"/>
<path d="M329.693 326.168C306.258 341.461 263.242 340.265 236.208 326.168C238.793 310.077 242.187 293.975 241.463 272.57C241.378 270.226 241.281 267.895 241.161 265.575C241.052 263.57 240.943 261.565 240.81 259.596C238.479 223.973 232.403 194.848 235.386 191.092C236.691 189.449 238.865 187.661 241.547 185.849C242.598 185.136 243.722 184.399 244.917 183.675C247.72 181.959 250.836 180.244 253.977 178.553C261.406 174.591 268.956 170.906 272.737 168.394C276.482 170.024 279.478 170.918 282.691 170.906C282.775 170.906 282.872 170.906 282.969 170.894C283.053 170.906 283.15 170.906 283.234 170.906C286.448 170.918 289.443 170.024 293.188 168.394C296.691 170.725 303.299 173.987 310.039 177.526C314.992 180.135 320.017 182.901 323.931 185.595C326.492 187.347 328.582 189.074 329.862 190.693C331.336 192.553 330.72 200.743 329.452 212.859C328.195 224.782 326.323 240.534 325.187 257.832C324.873 262.64 324.62 267.569 324.439 272.558C323.714 293.975 327.108 310.077 329.693 326.168Z" fill="#009CF8"/>
<path d="M315.366 308.374C315.366 308.374 315.354 308.374 315.366 308.374C296.498 308.29 280.383 299.701 270.2 292.513C259.183 284.734 252.503 276.858 252.443 276.786C252.117 276.399 252.165 275.831 252.551 275.505C252.938 275.179 253.506 275.227 253.832 275.614C253.892 275.686 260.452 283.417 271.287 291.064C281.253 298.094 296.993 306.478 315.366 306.562C315.874 306.562 316.272 306.973 316.272 307.468C316.272 307.976 315.861 308.374 315.366 308.374Z" fill="#006BDE"/>
<path d="M302.876 297.394C286.81 294.241 272.592 281.931 271.94 281.364C271.565 281.038 271.529 280.458 271.855 280.083C272.181 279.709 272.761 279.672 273.136 279.999C273.305 280.144 290.035 294.615 307.092 296.173C307.599 296.21 307.962 296.657 307.913 297.164C307.865 297.659 307.43 298.034 306.923 297.985C305.57 297.853 304.217 297.659 302.876 297.394Z" fill="#006BDE"/>
<path d="M279.091 214.273C278.668 214.273 278.281 213.971 278.197 213.536C278.1 213.041 278.426 212.569 278.921 212.473C301.921 208.112 308.855 193.314 308.928 193.157C309.133 192.698 309.677 192.493 310.123 192.698C310.583 192.904 310.788 193.447 310.583 193.894C310.293 194.534 303.19 209.706 279.26 214.248C279.199 214.273 279.139 214.273 279.091 214.273Z" fill="#006BDE"/>
<path d="M310.027 177.526C305.461 187.939 294.239 198.726 279.635 196.201C265.501 193.761 258.797 186.284 253.953 178.553C261.382 174.579 268.932 170.906 272.713 168.394C276.458 170.024 279.454 170.918 282.667 170.906C282.751 170.906 282.848 170.906 282.945 170.894C283.029 170.906 283.126 170.906 283.222 170.906C286.436 170.918 289.431 170.024 293.176 168.394C296.691 170.713 303.299 173.975 310.027 177.526Z" fill="#FFA681"/>
<path d="M297.827 169.155C297.428 169.155 297.102 169.469 297.102 169.867C297.102 170.447 296.861 184.218 284.503 185.281C273.039 186.272 268.292 175.303 266.83 170.749C266.746 170.483 266.492 170.302 266.214 170.302H266.081C265.647 170.302 265.332 170.737 265.465 171.148C267.024 175.847 272.025 187.19 283.706 186.767C284.008 186.755 284.322 186.743 284.624 186.707C298.298 185.523 298.54 170.012 298.54 169.855C298.552 169.481 298.226 169.155 297.827 169.155Z" fill="white"/>
<path d="M306.561 95.9755C306.561 95.9755 317.602 113.08 316.394 130.898C315.186 148.716 318.024 169.288 302.079 168.382C286.134 167.476 257.698 174.772 248.65 160.892C239.615 147.025 306.561 95.9755 306.561 95.9755Z" fill="#18315B"/>
<path d="M310.656 127.431C310.656 127.431 313.519 153.258 301.27 160.373C289.009 167.488 280.143 159.539 280.143 159.539C280.143 159.539 305.981 123.541 310.656 127.431Z" fill="#000B29"/>
<path d="M259.752 127.31C259.752 127.31 255.355 121.44 252.081 126.296C248.808 131.152 253.434 145.478 261.443 141.975L259.752 127.31Z" fill="#F97853"/>
<path d="M259.691 137.554C259.401 137.554 259.123 137.361 259.039 137.059C257.795 132.638 253.216 130.838 253.168 130.826C252.818 130.693 252.649 130.306 252.782 129.956C252.914 129.606 253.301 129.437 253.651 129.557C253.869 129.642 258.918 131.599 260.343 136.696C260.44 137.059 260.235 137.433 259.872 137.53C259.812 137.542 259.752 137.554 259.691 137.554Z" fill="#EA5143"/>
<path d="M255.065 135.319C254.944 135.319 254.811 135.283 254.702 135.211C254.388 135.005 254.292 134.595 254.497 134.28C254.533 134.232 255.343 132.988 257.034 132.227C257.372 132.07 257.771 132.227 257.928 132.565C258.085 132.903 257.928 133.302 257.589 133.459C256.273 134.051 255.645 134.993 255.632 135.005C255.5 135.211 255.282 135.319 255.065 135.319Z" fill="#EA5143"/>
<path d="M305.099 127.31C305.099 127.31 309.496 121.44 312.77 126.296C316.044 131.152 311.417 145.478 303.408 141.975L305.099 127.31Z" fill="#F97853"/>
<path d="M305.16 137.554C305.462 137.554 305.727 137.361 305.812 137.059C307.056 132.638 311.634 130.838 311.683 130.826C312.033 130.693 312.202 130.306 312.069 129.956C311.936 129.606 311.55 129.437 311.199 129.557C310.982 129.642 305.933 131.599 304.507 136.696C304.411 137.059 304.616 137.433 304.978 137.53C305.039 137.542 305.099 137.554 305.16 137.554Z" fill="#EA5143"/>
<path d="M309.786 135.319C309.907 135.319 310.04 135.283 310.149 135.211C310.463 135.005 310.559 134.595 310.354 134.28C310.318 134.232 309.509 132.988 307.817 132.227C307.479 132.07 307.08 132.227 306.923 132.565C306.766 132.903 306.923 133.302 307.262 133.459C308.578 134.051 309.207 134.993 309.219 135.005C309.339 135.211 309.557 135.319 309.786 135.319Z" fill="#EA5143"/>
<path d="M293.261 154.14V168.394C293.261 168.394 289.009 175.654 283.259 176.149C277.521 176.644 272.411 169.904 272.411 169.904V155.154L293.261 154.14Z" fill="#FFA681"/>
<path d="M293.261 154.14V160.469C289.408 164.746 282.559 166.268 272.424 164.77V155.142L293.261 154.14Z" fill="#F97853"/>
<path d="M308.289 117.538C308.023 123.07 307.491 130.004 306.441 135.537C306.175 136.914 305.873 138.218 305.547 139.378C302.551 149.875 295.049 167.886 274.043 160.385C264.765 157.075 260.465 146.747 258.556 136.237C257.252 129.098 257.058 121.887 257.155 116.741C257.252 111.486 260.127 106.678 264.705 104.081C277.099 97.0506 290.181 99.6719 298.794 102.982C304.761 105.277 308.591 111.148 308.289 117.538Z" fill="#FFA681"/>
<path d="M273.172 128.144C273.172 129.666 272.387 130.898 271.421 130.898C270.454 130.898 269.669 129.666 269.669 128.144C269.669 126.622 270.454 125.39 271.421 125.39C272.387 125.39 273.172 126.622 273.172 128.144Z" fill="#18315B"/>
<path d="M294.807 128.144C294.807 129.666 294.022 130.898 293.055 130.898C292.089 130.898 291.304 129.666 291.304 128.144C291.304 126.622 292.089 125.39 293.055 125.39C294.022 125.39 294.807 126.622 294.807 128.144Z" fill="#18315B"/>
<path d="M267.954 119.942C269.404 119.531 272.351 118.83 275.444 118.818C276.265 118.818 276.881 119.543 276.736 120.34V120.365C276.615 121.005 276.048 121.464 275.395 121.428C273.281 121.331 267.749 121.621 265.139 122.684C265.091 122.225 265.357 121.73 265.731 121.295C266.311 120.63 267.108 120.183 267.954 119.942Z" fill="#18315B"/>
<path d="M296.257 120.002C294.807 119.592 291.86 118.891 288.768 118.879C287.958 118.879 287.33 119.604 287.475 120.401V120.425C287.596 121.065 288.164 121.524 288.816 121.488C290.93 121.391 296.462 121.681 299.072 122.744C299.12 122.285 298.854 121.79 298.48 121.355C297.888 120.691 297.103 120.244 296.257 120.002Z" fill="#18315B"/>
<path d="M282.655 140.719C282.136 140.719 281.616 140.622 281.182 140.369C280.783 140.127 280.3 139.656 280.191 138.714C279.937 136.225 280.566 128.422 280.602 128.096C280.638 127.721 280.964 127.443 281.327 127.479C281.701 127.516 281.979 127.842 281.943 128.204C281.931 128.289 281.29 136.213 281.532 138.569C281.58 138.979 281.737 139.124 281.87 139.197C282.51 139.583 283.972 139.185 284.588 138.943C284.938 138.798 285.325 138.967 285.47 139.318C285.615 139.668 285.446 140.055 285.095 140.199C284.938 140.272 283.803 140.719 282.655 140.719Z" fill="#F97853"/>
<path d="M274.066 144.995C274.574 147.568 276.277 152.304 282.015 152.304C287.765 152.304 289.371 147.979 289.927 144.995H274.066Z" fill="white"/>
<path d="M281.918 156.254C280.263 156.254 278.801 155.36 278.741 155.323C278.427 155.13 278.33 154.707 278.523 154.393C278.717 154.079 279.139 153.983 279.453 154.176C279.466 154.188 280.661 154.901 281.918 154.901C283.283 154.901 284.503 154.176 284.515 154.176C284.841 153.983 285.252 154.091 285.445 154.405C285.638 154.719 285.542 155.142 285.216 155.335C285.167 155.372 283.681 156.254 281.918 156.254Z" fill="#F97853"/>
<path d="M311.006 116.427C310.788 117.043 310.184 117.441 309.375 117.671C309.435 119.169 309.278 120.956 309.133 122.684C308.3 132.468 305.824 134.184 305.268 131.768C304.905 130.161 304.918 120.944 305.099 117.936C303.166 117.804 301.511 117.49 301.511 117.49L299.24 107.995L298.443 117.381C295.036 118.565 287.1 116.668 287.1 116.668L284.43 107.306L282.787 116.318C277.678 118.806 271.3 117.151 271.3 117.151L269.838 107.427L266.456 117.151C266.456 117.151 255.56 121.065 255.439 117.151C255.366 114.88 257.033 108.478 258.435 103.513C259.969 98.1015 263.52 93.5354 268.328 90.9503C281.845 83.7024 296.136 87.5559 301.028 90.4792C311.441 96.6761 311.006 116.427 311.006 116.427Z" fill="#18315B"/>
<path d="M261.443 96.7002C261.443 96.7002 252.479 107.367 249.52 126.416C246.572 145.466 242.489 159.539 253.965 165.833C266.395 172.646 265.32 158.682 265.139 154.876C264.958 151.083 254.388 140.707 261.443 111.498C263.714 102.064 261.443 96.7002 261.443 96.7002Z" fill="#18315B"/>
<path d="M259.341 136.068C259.341 136.068 259.341 136.08 259.341 136.092C259.341 136.237 259.353 136.986 259.413 138.17C259.437 138.907 259.486 139.801 259.558 140.816C259.981 147.23 261.225 158.319 264.898 162.161C266.347 163.683 269.138 164.444 272.423 164.758V159.72C268.956 158.078 266.263 155.372 264.161 152.05C262.868 149.247 260.633 144.862 259.595 137.965L259.341 136.068Z" fill="#000B29"/>
<path d="M308.445 142.301C308.445 143.183 307.732 143.884 306.863 143.884C305.993 143.884 305.28 143.171 305.28 142.301C305.28 141.419 305.993 140.719 306.863 140.719C307.732 140.719 308.445 141.432 308.445 142.301Z" fill="white"/>
<path d="M340.771 261.794C336.277 274.659 316.152 273.717 293.237 266.687C293.2 266.675 293.176 266.663 293.14 266.65C293.068 266.626 292.995 266.602 292.923 266.59L289.77 265.587C289.335 265.442 288.9 265.298 288.465 265.153C286.001 264.331 283.512 263.437 281.012 262.483C272.822 259.378 264.571 255.682 256.792 251.756L256.84 251.623L259.184 245.535L259.981 243.469C259.981 243.469 302.466 248.096 323.835 243.626C324.197 243.554 324.547 243.469 324.898 243.397C324.813 242.926 324.789 242.443 324.656 241.984C313.337 203.449 325.719 196.056 329.863 190.681C329.85 190.681 349.251 237.514 340.771 261.794Z" fill="#009CF8"/>
<path d="M333.849 249.872C333.716 249.932 333.583 249.956 333.45 249.956C333.112 249.956 332.798 249.775 332.641 249.449C331.022 246.139 325.526 244.158 323.835 243.626C324.197 243.554 324.548 243.469 324.898 243.397C324.813 242.926 324.729 242.455 324.656 241.984C326.807 242.696 332.412 244.859 334.272 248.664C334.489 249.111 334.296 249.654 333.849 249.872Z" fill="#006BDE"/>
<path d="M274.344 248.253C265.671 248.253 258.628 247.758 258.024 247.709C257.529 247.673 257.155 247.238 257.191 246.743C257.227 246.248 257.662 245.873 258.157 245.909C258.483 245.934 290.35 248.193 302.913 243.095C303.372 242.902 303.903 243.131 304.097 243.59C304.29 244.049 304.06 244.581 303.601 244.774C296.631 247.589 284.395 248.253 274.344 248.253Z" fill="#006BDE"/>
<path d="M289.77 265.587C297.042 263.582 303.649 261.625 307.466 260.405C312.769 258.702 317.154 253.351 319.148 248.797C319.353 248.338 319.884 248.132 320.343 248.325C320.802 248.531 321.008 249.062 320.815 249.521C318.664 254.45 313.869 260.26 308.034 262.133C305.268 263.027 301.04 264.295 296.148 265.684C294.046 266.276 291.835 266.252 289.77 265.587Z" fill="#006BDE"/>
<path d="M309.376 259.354C243.71 281.472 223.513 267.001 223.513 267.001C219.091 227.029 235.387 191.079 235.387 191.079C240.195 199.016 245.643 212.859 245.643 212.859L247.08 243.506L246.972 244.351L246.923 244.75L246.657 246.84L246.645 246.876C246.79 246.912 246.923 246.936 247.068 246.973C266.927 251.164 303.251 246.477 303.251 246.477L309.376 259.354Z" fill="#009CF8"/>
<path d="M247.056 246.985C243.517 249.956 240.146 253.375 237.139 257.313C236.837 257.711 236.269 257.784 235.87 257.482C235.472 257.18 235.399 256.612 235.689 256.214C239.059 251.78 242.889 247.987 246.899 244.75L246.633 246.84L246.621 246.876C246.778 246.924 246.911 246.96 247.056 246.985Z" fill="#006BDE"/>
<path d="M303.239 246.502C303.239 246.502 310.511 229.988 321.564 231.462L324.898 243.397C318.846 245.97 317.964 256.334 309.376 259.367L303.239 246.502Z" fill="#FFA681"/>
<path d="M259.993 243.457C259.993 243.457 255.403 232.682 243.323 229.553C231.243 226.425 223.548 232.114 222.727 234.265C221.918 236.415 227.281 234.361 227.281 234.361C227.281 234.361 223.79 235.352 221.785 238.637C219.78 241.923 226.665 238.384 226.665 238.384C226.665 238.384 221.724 240.546 221.096 242.551C220.468 244.557 226.979 241.162 228.211 241.235C228.211 241.235 222.401 243.542 222.437 245.62C222.473 247.685 229.117 244.315 234.082 244.581C239.047 244.846 246.645 246.9 246.645 246.9C250.704 247.673 254.581 248.241 258.097 248.41L259.993 243.457Z" fill="#FFA681"/>
<path d="M376.659 75.9231C372.19 75.9231 368.554 72.2871 368.554 67.8176C368.554 63.348 372.19 59.712 376.659 59.712C381.129 59.712 384.765 63.348 384.765 67.8176C384.765 72.2871 381.129 75.9231 376.659 75.9231ZM376.659 62.2488C373.591 62.2488 371.09 64.7493 371.09 67.8176C371.09 70.8858 373.591 73.3863 376.659 73.3863C379.728 73.3863 382.228 70.8858 382.228 67.8176C382.216 64.7493 379.728 62.2488 376.659 62.2488Z" fill="#006BDE"/>
<path d="M447.41 62.14C442.941 62.14 439.305 58.504 439.305 54.0345C439.305 49.565 442.941 45.929 447.41 45.929C451.88 45.929 455.516 49.565 455.516 54.0345C455.516 58.504 451.88 62.14 447.41 62.14ZM447.41 48.4657C444.342 48.4657 441.841 50.9662 441.841 54.0345C441.841 57.1027 444.342 59.6033 447.41 59.6033C450.478 59.6033 452.979 57.1027 452.979 54.0345C452.979 50.9662 450.478 48.4657 447.41 48.4657Z" fill="#009CF8"/>
<path d="M457.436 88.4981C456.736 88.4981 456.168 87.9303 456.168 87.2297V81.6247C456.168 80.9241 456.736 80.3563 457.436 80.3563C458.137 80.3563 458.705 80.9241 458.705 81.6247V87.2297C458.705 87.9303 458.137 88.4981 457.436 88.4981Z" fill="#006BDE"/>
<path d="M457.436 98.3189C456.736 98.3189 456.168 97.7511 456.168 97.0505V91.4455C456.168 90.7449 456.736 90.1771 457.436 90.1771C458.137 90.1771 458.705 90.7449 458.705 91.4455V97.0505C458.705 97.7511 458.137 98.3189 457.436 98.3189Z" fill="#006BDE"/>
<path d="M465.301 90.6H460.263C459.563 90.6 458.995 90.0322 458.995 89.3316C458.995 88.631 459.563 88.0632 460.263 88.0632H465.301C466.001 88.0632 466.569 88.631 466.569 89.3316C466.581 90.0322 466.013 90.6 465.301 90.6Z" fill="#006BDE"/>
<path d="M454.598 90.6H449.56C448.86 90.6 448.292 90.0322 448.292 89.3316C448.292 88.631 448.86 88.0632 449.56 88.0632H454.598C455.298 88.0632 455.866 88.631 455.866 89.3316C455.866 90.0322 455.298 90.6 454.598 90.6Z" fill="#006BDE"/>
<path d="M414.59 54.5177C413.889 54.5177 413.321 53.95 413.321 53.2494V47.6443C413.321 46.9437 413.889 46.376 414.59 46.376C415.29 46.376 415.858 46.9437 415.858 47.6443V53.2494C415.87 53.95 415.29 54.5177 414.59 54.5177Z" fill="#1C31B5"/>
<path d="M414.59 64.3266C413.889 64.3266 413.321 63.7588 413.321 63.0582V57.4532C413.321 56.7526 413.889 56.1848 414.59 56.1848C415.29 56.1848 415.858 56.7526 415.858 57.4532V63.0582C415.87 63.7588 415.29 64.3266 414.59 64.3266Z" fill="#1C31B5"/>
<path d="M422.466 56.6197H417.429C416.728 56.6197 416.16 56.052 416.16 55.3513C416.16 54.6507 416.728 54.0829 417.429 54.0829H422.466C423.166 54.0829 423.734 54.6507 423.734 55.3513C423.746 56.052 423.166 56.6197 422.466 56.6197Z" fill="#1C31B5"/>
<path d="M411.763 56.6196H406.725C406.025 56.6196 405.457 56.0519 405.457 55.3513C405.457 54.6506 406.025 54.0829 406.725 54.0829H411.763C412.463 54.0829 413.031 54.6506 413.031 55.3513C413.031 56.0519 412.463 56.6196 411.763 56.6196Z" fill="#1C31B5"/>
<path d="M86.7812 47.2336C86.7812 42.7641 90.4173 39.1281 94.8868 39.1281C99.3563 39.1281 102.992 42.7641 102.992 47.2336C102.992 51.7031 99.3563 55.3391 94.8868 55.3391C90.4173 55.3512 86.7812 51.7031 86.7812 47.2336ZM89.318 47.2336C89.318 50.3018 91.8185 52.8024 94.8868 52.8024C97.955 52.8024 100.456 50.3018 100.456 47.2336C100.456 44.1653 97.955 41.6648 94.8868 41.6648C91.8185 41.6648 89.318 44.1653 89.318 47.2336Z" fill="#006BDE"/>
<path d="M54.2139 78.1457C54.2139 73.6762 57.8499 70.0402 62.3194 70.0402C66.7889 70.0402 70.4249 73.6762 70.4249 78.1457C70.4249 82.6152 66.7889 86.2512 62.3194 86.2512C57.8499 86.2633 54.2139 82.6152 54.2139 78.1457ZM56.7506 78.1457C56.7506 81.214 59.2511 83.7145 62.3194 83.7145C65.3877 83.7145 67.8882 81.214 67.8882 78.1457C67.8882 75.0774 65.3877 72.5769 62.3194 72.5769C59.2511 72.5769 56.7506 75.0774 56.7506 78.1457Z" fill="#009CF8"/>
<path d="M37.3504 89.5249C38.051 89.5249 38.6188 88.9572 38.6188 88.2566V82.6515C38.6188 81.9509 38.051 81.3832 37.3504 81.3832C36.6498 81.3832 36.082 81.9509 36.082 82.6515V88.2566C36.082 88.9572 36.6498 89.5249 37.3504 89.5249Z" fill="#006BDE"/>
<path d="M37.3504 99.3458C38.051 99.3458 38.6188 98.778 38.6188 98.0774V92.4724C38.6188 91.7717 38.051 91.204 37.3504 91.204C36.6498 91.204 36.082 91.7717 36.082 92.4724V98.0774C36.082 98.778 36.6498 99.3458 37.3504 99.3458Z" fill="#006BDE"/>
<path d="M29.4744 91.6389H34.5117C35.2123 91.6389 35.7801 91.0712 35.7801 90.3705C35.7801 89.6699 35.2123 89.1022 34.5117 89.1022H29.4744C28.7738 89.1022 28.2061 89.6699 28.2061 90.3705C28.2061 91.0591 28.7738 91.6389 29.4744 91.6389Z" fill="#006BDE"/>
<path d="M40.1895 91.6389H45.2267C45.9274 91.6389 46.4951 91.0712 46.4951 90.3705C46.4951 89.6699 45.9274 89.1022 45.2267 89.1022H40.1895C39.4888 89.1022 38.9211 89.6699 38.9211 90.3705C38.909 91.0591 39.4768 91.6389 40.1895 91.6389Z" fill="#006BDE"/>
<path d="M66.6561 46.4001C67.3567 46.4001 67.9244 45.8323 67.9244 45.1317V39.5267C67.9244 38.826 67.3567 38.2583 66.6561 38.2583C65.9554 38.2583 65.3877 38.826 65.3877 39.5267V45.1317C65.3877 45.8323 65.9554 46.4001 66.6561 46.4001Z" fill="#1C31B5"/>
<path d="M66.6561 56.2209C67.3567 56.2209 67.9244 55.6532 67.9244 54.9526V49.3475C67.9244 48.6469 67.3567 48.0792 66.6561 48.0792C65.9554 48.0792 65.3877 48.6469 65.3877 49.3475V54.9526C65.3877 55.6532 65.9554 56.2209 66.6561 56.2209Z" fill="#1C31B5"/>
<path d="M58.792 48.502H63.8293C64.5299 48.502 65.0976 47.9342 65.0976 47.2336C65.0976 46.533 64.5299 45.9652 63.8293 45.9652H58.792C58.0914 45.9652 57.5236 46.533 57.5236 47.2336C57.5115 47.9342 58.0793 48.502 58.792 48.502Z" fill="#1C31B5"/>
<path d="M69.4949 48.502H74.5322C75.2328 48.502 75.8006 47.9342 75.8006 47.2336C75.8006 46.533 75.2328 45.9652 74.5322 45.9652H69.4949C68.7943 45.9652 68.2266 46.533 68.2266 47.2336C68.2266 47.9342 68.7943 48.502 69.4949 48.502Z" fill="#1C31B5"/>
<path d="M309.193 47.8134C309.048 47.8255 308.891 47.8134 308.746 47.753C307.2 47.1007 306.294 46.7987 306.294 46.7987C305.823 46.6417 305.569 46.1343 305.726 45.6512C305.883 45.18 306.391 44.9264 306.874 45.0834C306.91 45.0955 307.84 45.4096 309.459 46.086C309.918 46.2793 310.135 46.8108 309.942 47.2698C309.797 47.5839 309.507 47.7893 309.193 47.8134Z" fill="#BBE2F2"/>
<path d="M355.229 96.2654C355.845 97.9082 356.413 99.5994 356.945 101.291C357.078 101.713 357.476 101.967 357.899 101.919C357.959 101.907 358.008 101.907 358.068 101.882C358.539 101.738 358.817 101.23 358.66 100.759C358.129 99.0316 357.537 97.3042 356.908 95.6372C356.739 95.1661 356.22 94.9366 355.749 95.1057C355.29 95.2748 355.048 95.8063 355.229 96.2654Z" fill="#BBE2F2"/>
<path d="M358.346 106.412C358.757 108.104 359.131 109.855 359.457 111.607C359.542 112.078 359.977 112.392 360.436 112.344C360.46 112.344 360.484 112.344 360.508 112.331C361.004 112.235 361.318 111.764 361.233 111.281C360.907 109.505 360.52 107.717 360.098 105.99C359.977 105.506 359.494 105.204 359.01 105.325C358.527 105.434 358.225 105.929 358.346 106.412Z" fill="#BBE2F2"/>
<path d="M362.151 133.689C362.598 133.64 362.948 133.266 362.96 132.807C362.984 130.995 362.972 129.171 362.924 127.407C362.912 126.912 362.489 126.513 361.994 126.537C361.487 126.549 361.1 126.972 361.124 127.467C361.172 129.219 361.185 131.007 361.16 132.795C361.148 133.29 361.547 133.701 362.054 133.713C362.078 133.689 362.115 133.689 362.151 133.689Z" fill="#BBE2F2"/>
<path d="M361.064 115.835C360.569 115.895 360.218 116.354 360.291 116.849C360.399 117.671 360.496 118.492 360.581 119.302C360.677 120.232 360.762 121.186 360.846 122.14C360.883 122.636 361.318 123.01 361.813 122.974C361.825 122.974 361.825 122.974 361.837 122.974C362.32 122.925 362.683 122.491 362.646 122.007C362.574 121.041 362.477 120.075 362.381 119.12C362.296 118.299 362.199 117.453 362.091 116.62C362.03 116.137 361.583 115.786 361.1 115.835C361.076 115.835 361.064 115.835 361.064 115.835Z" fill="#BBE2F2"/>
<path d="M353.212 91.361C353.382 91.7234 353.756 91.9287 354.13 91.8925C354.227 91.8804 354.312 91.8562 354.408 91.82C354.867 91.6146 355.073 91.0831 354.867 90.6241C354.13 88.9812 353.333 87.3384 352.5 85.7559C352.27 85.309 351.727 85.1399 351.28 85.3815C350.833 85.611 350.664 86.1546 350.905 86.6015C351.715 88.1477 352.488 89.7543 353.212 91.361Z" fill="#BBE2F2"/>
<path d="M313.542 49.9999C315.088 50.7971 316.659 51.6548 318.193 52.5608C318.362 52.6695 318.555 52.7057 318.749 52.6816C319.026 52.6574 319.28 52.5004 319.437 52.2467C319.691 51.8118 319.546 51.2682 319.123 51.0146C317.553 50.0844 315.958 49.2026 314.376 48.3933C313.929 48.1637 313.385 48.3449 313.156 48.7919C312.926 49.2268 313.107 49.7704 313.542 49.9999Z" fill="#BBE2F2"/>
<path d="M327.011 58.504C327.204 58.649 327.434 58.7094 327.651 58.6852C327.893 58.6611 328.122 58.5403 328.279 58.3349C328.581 57.9363 328.509 57.3685 328.11 57.0665C326.685 55.9793 325.199 54.9163 323.713 53.9016C323.302 53.6238 322.735 53.7325 322.457 54.1432C322.179 54.5539 322.288 55.1217 322.698 55.3995C324.148 56.3901 325.609 57.4289 327.011 58.504Z" fill="#BBE2F2"/>
<path d="M342.184 73.2897C342.389 73.5434 342.691 73.6521 342.981 73.6279C343.15 73.6158 343.307 73.5434 343.452 73.4346C343.839 73.1206 343.899 72.5528 343.597 72.1663C342.474 70.765 341.29 69.3758 340.082 68.0471C339.744 67.6726 339.176 67.6484 338.801 67.9867C338.427 68.3249 338.403 68.8926 338.741 69.2671C339.925 70.5597 341.084 71.9247 342.184 73.2897Z" fill="#BBE2F2"/>
<path d="M335.044 65.4379C335.249 65.6311 335.515 65.7157 335.769 65.6915C335.974 65.6674 336.167 65.5828 336.324 65.4258C336.675 65.0634 336.662 64.4957 336.312 64.1453C335.032 62.9011 333.679 61.669 332.314 60.4852C331.939 60.159 331.359 60.2073 331.045 60.5818C330.719 60.9563 330.768 61.524 331.142 61.8502C332.471 63.0098 333.787 64.2178 335.044 65.4379Z" fill="#BBE2F2"/>
<path d="M348.284 81.975C348.477 82.277 348.816 82.434 349.154 82.3978C349.287 82.3857 349.407 82.3374 349.528 82.2649C349.951 81.9991 350.084 81.4435 349.83 81.0207C348.888 79.4865 347.897 77.9645 346.859 76.4908C346.569 76.08 346.013 75.9834 345.602 76.2733C345.192 76.5632 345.095 77.1189 345.385 77.5296C346.388 78.9792 347.366 80.4771 348.284 81.975Z" fill="#BBE2F2"/>
<path d="M309.181 41.6407L313.131 27L264.691 27.4107L309.181 41.6407Z" fill="#009CF8"/>
<path d="M264.691 27.4107L306.826 45.168L306.934 45.2163L308.746 48.2242L309.181 41.6407L264.691 27.4107Z" fill="#006BDE"/>
<path d="M308.746 48.2242L304.82 47.6081L306.934 45.2163L308.746 48.2242Z" fill="#006BDE"/>
<path d="M301.631 42.9815L306.934 45.2163L296.014 57.5256L264.691 27.4107L301.631 42.9815Z" fill="#009CF8"/>
<path d="M531.908 426.816V427.698C531.908 432.784 527.777 436.915 522.692 436.915H44.3809C39.2833 436.915 35.1641 432.784 35.1641 427.698V426.816C35.1641 421.731 39.2953 417.599 44.3809 417.599H522.68C527.777 417.599 531.908 421.731 531.908 426.816Z" fill="#1C31B5"/>
<path d="M531.908 426.816V427.263H35.1641V426.816C35.1641 421.731 39.2953 417.599 44.3809 417.599H522.68C527.777 417.599 531.908 421.731 531.908 426.816Z" fill="#006BDE"/>
<path d="M356.728 388.596H206.479C202.892 388.596 199.98 385.685 199.98 382.097V303.482C199.98 299.894 202.892 296.983 206.479 296.983H356.74C360.327 296.983 363.239 299.894 363.239 303.482V382.097C363.227 385.685 360.327 388.596 356.728 388.596Z" fill="#18315B"/>
<path d="M294.251 388.487H268.968V417.31H294.251V388.487Z" fill="#000B29"/>
<path d="M281.325 356.464C288.257 356.464 293.876 350.844 293.876 343.913C293.876 336.981 288.257 331.362 281.325 331.362C274.394 331.362 268.774 336.981 268.774 343.913C268.774 350.844 274.394 356.464 281.325 356.464Z" fill="#1D567E"/>
<path d="M313.809 417.322H248.59V415.123C248.59 410.69 252.19 407.09 256.623 407.09H305.788C310.221 407.09 313.821 410.69 313.821 415.123V417.322H313.809Z" fill="#18315B"/>
</g>
<defs>
<clipPath id="clip0_102_5887">
<rect width="603.989" height="424" fill="white"/>
</clipPath>
</defs>
</svg>
