<svg width="36" height="36" viewBox="0 0 36 36" fill="none" xmlns="http://www.w3.org/2000/svg">
<path d="M17.9997 13.3137C15.4192 13.3137 13.3134 15.4195 13.3134 18C13.3134 20.5805 15.4192 22.6863 17.9997 22.6863C20.5801 22.6863 22.686 20.5805 22.686 18C22.686 15.4195 20.5801 13.3137 17.9997 13.3137ZM32.0552 18C32.0552 16.0594 32.0727 14.1363 31.9637 12.1992C31.8548 9.94924 31.3415 7.95236 29.6962 6.30705C28.0473 4.65822 26.054 4.14846 23.804 4.03947C21.8634 3.93049 19.9403 3.94807 18.0032 3.94807C16.0626 3.94807 14.1395 3.93049 12.2024 4.03947C9.95241 4.14846 7.95554 4.66174 6.31023 6.30705C4.6614 7.95588 4.15163 9.94924 4.04265 12.1992C3.93366 14.1399 3.95124 16.0629 3.95124 18C3.95124 19.9371 3.93366 21.8637 4.04265 23.8008C4.15163 26.0508 4.66491 28.0477 6.31023 29.693C7.95905 31.3418 9.95241 31.8516 12.2024 31.9606C14.143 32.0695 16.0661 32.052 18.0032 32.052C19.9438 32.052 21.8669 32.0695 23.804 31.9606C26.054 31.8516 28.0509 31.3383 29.6962 29.693C31.345 28.0442 31.8548 26.0508 31.9637 23.8008C32.0762 21.8637 32.0552 19.9406 32.0552 18ZM17.9997 25.2106C14.0094 25.2106 10.7891 21.9903 10.7891 18C10.7891 14.0098 14.0094 10.7895 17.9997 10.7895C21.9899 10.7895 25.2102 14.0098 25.2102 18C25.2102 21.9903 21.9899 25.2106 17.9997 25.2106ZM25.5055 12.1781C24.5739 12.1781 23.8216 11.4258 23.8216 10.4942C23.8216 9.56252 24.5739 8.81018 25.5055 8.81018C26.4372 8.81018 27.1895 9.56252 27.1895 10.4942C27.1898 10.7154 27.1464 10.9345 27.0619 11.1389C26.9774 11.3434 26.8533 11.5291 26.6969 11.6855C26.5405 11.842 26.3547 11.966 26.1503 12.0505C25.9459 12.1351 25.7268 12.1784 25.5055 12.1781Z" fill="#0252BA"/>
</svg>
