<svg width="136" height="38" viewBox="0 0 136 38" fill="none" xmlns="http://www.w3.org/2000/svg">
<path d="M14.8433 1.31764C13.8607 1.5267 12.6063 1.88211 12.0209 2.11208L10.9756 2.55112H13.4007L15.8259 2.57202L16.3903 1.73576C16.683 1.27582 16.8712 0.899508 16.7876 0.920415C16.683 0.920415 15.8259 1.10857 14.8433 1.31764Z" fill="#0252BA"/>
<path d="M20.8439 1.81947L21.4293 2.76025H23.3108C24.3562 2.73935 25.4224 2.67663 25.7151 2.593C26.1541 2.46756 25.9659 2.36303 24.5652 1.90309C23.6453 1.6104 22.4746 1.2968 21.9519 1.21318C21.4293 1.15046 20.8439 1.02502 20.6348 0.983209C20.3421 0.878676 20.3839 1.04593 20.8439 1.81947Z" fill="#0252BA"/>
<path d="M8.32119 4.01468C7.48493 4.57915 6.3978 5.45722 5.89605 5.97988L4.99707 6.89977L7.15043 7.02521C13.9032 7.44333 14.1959 7.44333 14.3004 7.15064C14.9903 4.91366 15.4503 3.30386 15.4085 3.28296C15.3876 3.26205 14.1332 3.19933 12.607 3.11571L9.86827 2.99027L8.32119 4.01468Z" fill="#0252BA"/>
<path d="M24.4816 3.15744C21.9519 3.19925 21.701 3.24106 21.8265 3.57557C21.8892 3.76372 22.161 4.68361 22.4537 5.60349L22.9554 7.276L25.736 7.25509C27.283 7.25509 29.3737 7.17147 30.3981 7.08784L32.2379 6.92059L31.4434 6.08434C30.5444 5.18536 29.1646 4.11913 28.0148 3.49194C27.3876 3.13653 26.9276 3.09472 24.4816 3.15744Z" fill="#0252BA"/>
<path d="M3.51214 8.65578C2.98948 9.38751 2.4041 10.2865 2.23685 10.6419L1.90234 11.29L4.13933 11.5409C6.29269 11.7708 11.8747 12.189 12.9827 12.189C13.4845 12.189 13.5263 12.1262 13.7772 10.2656C13.9235 9.19935 14.0908 8.23765 14.1535 8.09131C14.2162 7.94496 13.2545 7.81952 10.9339 7.71499C9.11506 7.65227 6.91988 7.52683 6.04181 7.46412L4.45293 7.31777L3.51214 8.65578Z" fill="#0252BA"/>
<path d="M29.6875 7.61056C28.4749 7.7151 26.5097 7.84053 25.2971 7.92416L23.0811 8.0496L23.3947 10.0357L23.7082 12.0427L26.4679 11.9173C30.2938 11.75 34.7677 11.3319 34.9977 11.1228C35.1022 11.0392 34.6423 10.1611 33.9942 9.17855C33.0534 7.77782 32.698 7.38059 32.3426 7.4015C32.0917 7.42241 30.9001 7.52694 29.6875 7.61056Z" fill="#0252BA"/>
<path d="M42.4817 13.1716L42.5444 14.7814L45.2622 15.6804C46.7675 16.1612 48.0428 16.5585 48.1473 16.5585C48.2309 16.5794 48.2936 16.1612 48.2936 15.6386V14.6978H46.5166H44.7396V13.1298V11.5618H43.5897H42.4189L42.4817 13.1716Z" fill="#0252BA"/>
<path d="M96.3789 16.8093C96.3789 21.5133 96.4207 22.0569 96.7134 21.9314C96.9016 21.8687 97.4033 21.806 97.8633 21.806H98.6786V16.6839V11.5618H97.5288H96.3789V16.8093Z" fill="#0252BA"/>
<path d="M116.135 11.8128C116.072 11.98 116.051 13.8407 116.072 15.9731L116.135 19.8408L117.285 19.6318L118.435 19.4018L118.497 18.1892L118.56 16.9975H120.316H122.093V15.8477V14.6978H120.316H118.56L118.497 13.1717L118.435 11.6664L117.327 11.6037C116.574 11.5619 116.198 11.6246 116.135 11.8128Z" fill="#0252BA"/>
<path d="M88.7685 14.5097C86.5733 14.8442 84.8799 16.6003 84.8799 18.5655C84.8799 20.2171 86.0297 21.2833 88.3922 21.7851C89.6675 22.0569 94.4968 22.0987 94.4968 21.8478C94.4968 21.5551 93.6815 20.7816 93.0334 20.4471C92.7198 20.2798 91.5699 19.9871 90.5037 19.799C88.2876 19.4227 87.7859 19.2554 87.4096 18.7955C87.1796 18.5237 87.1796 18.3355 87.3468 17.9383C87.9531 16.6212 90.5873 16.3912 91.779 17.5202C92.1344 17.8547 92.4062 18.2519 92.4062 18.3983C92.4062 18.5864 92.7407 18.67 93.556 18.67C94.6432 18.67 94.7059 18.6491 94.7059 18.1474C94.7059 17.3738 94.2251 16.5376 93.3261 15.764C92.1135 14.6769 90.5246 14.2588 88.7685 14.5097Z" fill="#0252BA"/>
<path d="M127.592 14.8233C126.275 15.3041 124.185 17.3111 124.185 18.1056C124.185 18.231 126.902 17.5411 130.603 16.4749C133.634 15.5968 133.781 15.4295 131.983 14.8233C130.791 14.4051 128.763 14.426 127.592 14.8233Z" fill="#0252BA"/>
<path d="M53.5206 15.0113C52.5171 15.3249 50.8027 16.642 50.8027 17.0811C50.8027 17.2274 51.3045 17.4574 51.9317 17.6037C52.9352 17.8337 53.1443 17.8128 53.6042 17.5201C53.9387 17.2901 54.775 17.1229 55.8203 17.0602L57.4928 16.9347V15.8267V14.6977L55.9875 14.7187C55.1513 14.7187 54.0432 14.865 53.5206 15.0113Z" fill="#0252BA"/>
<path d="M61.7369 15.0323C60.6289 15.4295 59.0609 16.8093 58.5382 17.8547C58.3083 18.2937 58.1201 18.7327 58.1201 18.8373C58.1201 19.1299 60.2944 19.5272 60.3989 19.2554C60.4407 19.1299 60.7961 18.67 61.1725 18.2519C62.8032 16.4539 65.6673 16.7466 66.859 18.8373C67.1099 19.2972 67.3189 19.8617 67.3189 20.1125C67.3189 20.6143 67.4444 20.677 68.8451 20.8443C69.765 20.9488 69.8277 20.9279 69.8277 20.4889C69.8277 18.44 67.967 15.8894 65.9391 15.1368C64.6011 14.6351 62.9913 14.5932 61.7369 15.0323Z" fill="#0252BA"/>
<path d="M75.1171 15.1369C73.1519 15.8896 71.6257 17.9175 71.354 20.1127L71.2285 21.1789H71.9393C72.3366 21.1789 72.8383 21.2416 73.0683 21.3043C73.4446 21.4089 73.5282 21.2625 73.7582 20.1545C74.469 16.7049 78.4621 15.9523 80.4273 18.8583C80.7827 19.3809 80.9082 19.8618 80.9082 20.6562C80.9082 21.8897 81.0754 22.0151 82.6643 22.0151H83.4797L83.3542 20.6562C83.1661 18.7746 82.518 17.3739 81.2845 16.2659C79.5702 14.7188 77.2705 14.3007 75.1171 15.1369Z" fill="#0252BA"/>
<path d="M106.602 15.0113C104.532 15.6803 102.692 18.1055 102.588 20.2798C102.567 20.8651 102.588 21.3878 102.651 21.4505C102.713 21.5132 103.236 21.5132 103.821 21.4505L104.909 21.346L104.992 20.3007C105.222 18.0846 107.355 16.6211 109.508 17.2065C110.574 17.4783 111.808 18.67 111.996 19.548C112.142 20.3007 112.414 20.4261 113.627 20.2379C114.525 20.1125 114.567 20.0707 114.442 19.548C114.003 17.6874 112.811 16.1403 111.16 15.304C110.031 14.7187 107.919 14.5932 106.602 15.0113Z" fill="#0252BA"/>
<path d="M42.4404 19.0463C42.4404 23.0394 42.6286 23.9384 43.7575 25.13C44.6774 26.0917 45.8691 26.6144 47.2071 26.6144H48.2942V25.5691C48.2942 24.5446 48.2733 24.5237 47.667 24.5237C46.7472 24.5237 45.7227 24.0429 45.2001 23.3739C44.7819 22.8512 44.7401 22.5585 44.7401 19.9034V16.9974L45.7436 16.9765L46.7262 16.9556L44.991 16.3702C44.0293 16.0357 43.0676 15.7012 42.8377 15.6385C42.4613 15.5131 42.4404 15.6385 42.4404 19.0463Z" fill="#0252BA"/>
<path d="M0.146345 17.2485C0.0627192 17.8548 0 18.7956 0 19.3182C0 20.259 0.0209064 20.3008 0.689912 20.4263C2.04883 20.6562 7.4845 21.1789 10.3069 21.3043L13.171 21.4507V19.36V17.2694L10.4114 17.1231C7.69356 16.9767 2.19517 16.475 0.919882 16.245C0.271783 16.1195 0.271783 16.1195 0.146345 17.2485Z" fill="#0252BA"/>
<path d="M34.4952 16.4958C33.4081 16.6421 31.0038 16.8721 29.1641 16.9975C27.3243 17.123 25.4218 17.2902 24.941 17.332L24.042 17.4366V19.4854V21.5133L25.4636 21.4506C29.3731 21.2624 36.9413 20.4889 37.1712 20.238C37.3594 20.0499 36.8994 16.2867 36.6904 16.2658C36.5858 16.224 35.5823 16.3285 34.4952 16.4958Z" fill="#0252BA"/>
<path d="M132.965 16.5167C132.442 16.6839 131.878 16.8721 131.71 16.9139C131.501 16.9975 131.606 17.1439 132.066 17.4366C132.735 17.8547 133.592 19.0045 133.592 19.4854C133.592 19.6526 132.484 19.7154 129.829 19.7154C125.919 19.7154 125.836 19.6945 126.296 18.8373C126.505 18.4401 126.484 18.4192 125.94 18.5446C123.766 19.0673 123.829 19.0254 123.703 19.9662C123.431 21.9314 124.288 24.0639 125.877 25.4437C127.947 27.1999 131.376 27.3044 133.529 25.6528C134.24 25.1092 135.473 23.583 135.473 23.2276C135.473 23.144 134.93 23.0604 134.261 23.0604C133.257 23.0604 132.944 23.144 132.63 23.4994C132.087 24.1057 130.707 24.7329 129.871 24.7329C128.512 24.7329 126.985 23.813 126.358 22.5795L126.045 22.0151H130.937H135.85L135.954 21.3879C136.122 20.6143 135.808 18.8791 135.348 18.001C134.909 17.1648 134.177 16.1613 134.031 16.1822C133.968 16.1822 133.487 16.3285 132.965 16.5167Z" fill="#0252BA"/>
<path d="M50.0922 18.6908C50.0295 19.0463 49.9668 20.9906 49.9668 22.9767V26.6144H50.9912H52.0365L52.0993 22.893C52.1411 20.8651 52.2456 19.0463 52.3292 18.8581C52.4756 18.5863 52.3083 18.4609 51.5557 18.2727C50.2595 17.9591 50.2386 17.9591 50.0922 18.6908Z" fill="#0252BA"/>
<path d="M57.9522 21.158C58.0776 22.7887 58.6003 23.8967 59.7292 24.9629C60.7327 25.9246 61.6108 26.3846 62.8234 26.5518L63.7642 26.6772V25.611C63.7642 24.5448 63.7642 24.5448 62.9279 24.3148C61.4017 23.8967 60.0219 22.2033 60.001 20.7398C60.001 20.2381 59.8965 20.1754 58.9348 19.9872L57.8477 19.7572L57.9522 21.158Z" fill="#0252BA"/>
<path d="M117.202 20.4261L116.198 20.6142L116.282 22.1404C116.345 23.4157 116.449 23.792 116.972 24.5446C117.808 25.7363 119.481 26.6144 120.86 26.6144H121.885V25.5691C121.885 24.5446 121.864 24.5237 121.258 24.5237C120.317 24.5237 119.251 24.022 118.832 23.3739C118.623 23.0603 118.414 22.224 118.352 21.5132L118.226 20.2379L117.202 20.4261Z" fill="#0252BA"/>
<path d="M112.748 21.116C112.288 21.1996 112.268 21.2832 112.268 23.9175V26.6144H113.417H114.567V23.792V20.9696L113.898 20.9906C113.522 21.0115 112.999 21.0742 112.748 21.116Z" fill="#0252BA"/>
<path d="M67.5273 23.9802V26.6144H68.5727H69.618V24.1056V21.5968H69.0535C68.719 21.5968 68.2591 21.5341 68.0082 21.4714C67.5273 21.346 67.5273 21.346 67.5273 23.9802Z" fill="#0252BA"/>
<path d="M71.291 24.1892V26.6144H72.4409H73.5907V24.3147V22.015H72.7754C72.3154 22.015 71.8137 21.9522 71.6255 21.8895C71.3328 21.785 71.291 22.0568 71.291 24.1892Z" fill="#0252BA"/>
<path d="M103.842 22.1613C102.922 22.2449 102.86 22.2868 102.985 22.7049C103.57 24.6492 106.1 26.6144 108.024 26.6144C108.463 26.6144 108.504 26.5308 108.504 25.5691C108.504 24.5446 108.504 24.5446 107.668 24.3147C106.748 24.0638 105.452 23.0603 105.264 22.4122C105.18 22.2031 105.076 22.0359 104.992 22.0568C104.908 22.0777 104.386 22.1195 103.842 22.1613Z" fill="#0252BA"/>
<path d="M81.1172 24.6283V26.6144H82.1625H83.2078V24.6283V22.6422H82.1625H81.1172V24.6283Z" fill="#0252BA"/>
<path d="M96.5879 22.9349C96.5879 23.9593 97.9259 25.6527 99.2012 26.2172C99.6611 26.4262 100.539 26.6144 101.145 26.6144H102.233V25.5691C102.233 24.5446 102.212 24.5237 101.605 24.5237C100.644 24.5237 99.6193 24.022 99.0758 23.2903C98.6576 22.7258 98.4695 22.6422 97.5914 22.6422C96.8597 22.6422 96.5879 22.7258 96.5879 22.9349Z" fill="#0252BA"/>
<path d="M84.8799 23.165C84.8799 23.6877 85.4862 25.0048 85.9879 25.5483C87.6604 27.3672 91.6327 27.5135 93.5142 25.8201C94.0787 25.3184 94.7059 24.0222 94.7059 23.3741C94.7059 22.8723 94.6432 22.8514 93.5979 22.8514C92.5944 22.8514 92.4898 22.8932 92.4689 23.3113C92.3853 24.3567 90.6919 25.1302 89.1657 24.8584C88.2876 24.6912 87.1796 23.7922 87.1796 23.2486C87.1796 22.9141 87.0123 22.8514 86.0297 22.8514C85.1308 22.8514 84.8799 22.9141 84.8799 23.165Z" fill="#0252BA"/>
<path d="M1.25398 26.0081C1.25398 26.5726 3.21918 30.0012 3.63731 30.1476C4.11816 30.3357 10.8291 30.7957 12.8779 30.7957H14.1323L13.8815 29.2695C13.7351 28.4541 13.6097 27.5133 13.5888 27.2207V26.6771L10.6201 26.5307C8.96845 26.4471 6.31333 26.2381 4.70354 26.0708C1.19126 25.7154 1.25398 25.7154 1.25398 26.0081Z" fill="#0252BA"/>
<path d="M31.7775 26.0919C30.335 26.2382 27.9099 26.4264 26.4046 26.51L23.624 26.6563V27.2208C23.6031 27.5135 23.4777 28.4543 23.3314 29.3114L23.0596 30.8585L26.53 30.7122C31.5894 30.524 33.6382 30.2731 33.9936 29.8132C34.3908 29.2905 35.6661 26.8236 35.8543 26.2382C36.0215 25.6946 35.917 25.6946 31.7775 26.0919Z" fill="#0252BA"/>
<path d="M4.59949 31.632C5.35212 32.5937 7.2337 34.2244 8.38355 34.9143C8.98984 35.2697 9.57522 35.3533 12.2931 35.4788L15.5126 35.6251L15.3454 35.1443C15.2618 34.8725 14.99 33.9735 14.7391 33.1582C14.4882 32.3219 14.2373 31.5902 14.1746 31.5275C14.1119 31.4438 12.5021 31.3184 10.6205 31.2139C8.75987 31.1093 6.46016 30.9421 5.54028 30.8794L3.88867 30.733L4.59949 31.632Z" fill="#0252BA"/>
<path d="M30.001 31.0258C28.8512 31.1303 26.8023 31.2766 25.4225 31.3603L22.9556 31.5275L22.4956 33.0955C22.2447 33.9527 21.952 34.8935 21.8684 35.1652L21.7012 35.667L24.8999 35.5206C27.2623 35.3952 28.2658 35.2698 28.6421 35.0398C29.7292 34.3499 31.7153 32.6356 32.468 31.7366L33.2624 30.7958L32.677 30.8167C32.3634 30.8376 31.1509 30.9421 30.001 31.0258Z" fill="#0252BA"/>
<path d="M10.4114 36.0641C10.7041 36.3568 13.4637 37.2976 14.8853 37.5903C16.976 38.0293 16.9969 38.0293 16.4115 37.1512C16.1188 36.7331 15.8889 36.315 15.8889 36.2105C15.8889 36.1268 14.6136 36.0223 13.0665 35.9805C11.5194 35.9387 10.3277 35.9805 10.4114 36.0641Z" fill="#0252BA"/>
<path d="M20.9268 36.9631C20.3833 37.7785 20.3414 37.9039 20.6759 37.9039C21.324 37.9039 24.92 36.9213 25.9235 36.4823L26.8642 36.0433H24.2091L21.554 36.0224L20.9268 36.9631Z" fill="#0252BA"/>
</svg>
