<svg width="621" height="465" viewBox="0 0 621 465" fill="none" xmlns="http://www.w3.org/2000/svg">
<path opacity="0.2" d="M590.509 258.718L577.006 240.165C577.006 240.165 517.006 175.958 512.455 101.972C507.91 27.9859 481.983 18.6584 420.583 15.4917C368.677 12.8142 308.449 3.11846 261.753 46.2938C241.262 65.2431 216.588 75.2177 191.217 74.7136L135.298 73.597C108.619 73.0605 82.7491 84.0945 61.773 105.031C30.6751 136.077 -1.90448 192.615 15.3891 287.028C18.3246 303.06 20.537 319.882 21.3257 336.265L23.2633 376.51C24.9649 411.853 47.2975 439.881 74.1833 439.986L493.626 441.627C536.751 441.793 577.374 417.994 605.588 376.09C613.111 364.914 616.885 350.189 616.157 335.068C614.788 306.635 605.662 279.538 590.509 258.718Z" fill="#319BFF"/>
<g clip-path="url(#clip0_102_6253)">
<path d="M366.122 152.92C392.703 126.339 392.703 83.2421 366.122 56.661C339.541 30.0799 296.445 30.0799 269.864 56.661C243.283 83.242 243.283 126.339 269.864 152.92C296.445 179.501 339.541 179.501 366.122 152.92Z" fill="#0252BA"/>
<path d="M318.929 172.858C359.39 172.858 392.19 142.384 392.19 104.792C392.19 67.2007 359.39 36.7266 318.929 36.7266C278.468 36.7266 245.668 67.2007 245.668 104.792C245.668 142.384 278.468 172.858 318.929 172.858Z" stroke="#55A3F3" stroke-width="0.669758" stroke-miterlimit="10"/>
<path d="M356.18 187.045L333.745 162.832L347.428 159.06L356.18 187.045Z" fill="#55A3F3"/>
<path d="M271.644 187.045L294.078 162.832L280.396 159.06L271.644 187.045Z" fill="#55A3F3"/>
<path d="M310.035 127.508V120.436C310.035 115.985 310.59 112.271 311.706 109.293C312.815 106.314 314.246 103.75 315.975 101.616C317.712 99.4814 319.466 97.5704 321.245 95.8746C323.644 93.6493 325.786 91.4488 327.647 89.2649C329.517 87.0892 330.452 84.2187 330.452 80.6533C330.452 78.701 329.964 77.0465 328.988 75.7146C328.011 74.3827 326.828 73.3321 325.447 72.5793C324.065 71.8265 322.709 71.446 321.377 71.446C318.796 71.446 316.637 72.0499 314.9 73.2494C313.162 74.4489 311.74 75.9876 310.631 77.8572C309.514 79.7267 308.563 81.6873 307.76 83.7306H304.129L292.415 76.5253C292.953 74.9205 293.879 72.8772 295.219 70.3871C296.551 67.8971 298.446 65.4071 300.894 62.9088C303.343 60.4188 306.412 58.3259 310.102 56.6383C313.791 54.9507 318.217 54.0987 323.379 54.0987C328.45 54.0987 333.008 54.9673 337.062 56.7045C341.107 58.4417 344.333 61.1054 346.74 64.7122C349.139 68.319 350.347 73.0509 350.347 78.9243C350.347 83.8216 349.677 87.7759 348.345 90.8036C347.013 93.8313 345.359 96.3875 343.406 98.4804C341.446 100.573 339.485 102.641 337.533 104.685C336.019 106.199 334.572 107.87 333.198 109.69C331.817 111.518 330.725 113.627 329.931 116.026C329.128 118.425 328.731 121.321 328.731 124.704V127.508H310.035ZM319.383 155.676C316.182 155.676 313.551 154.808 311.508 153.07C309.456 151.333 308.439 149.042 308.439 146.196C308.439 143.441 309.481 141.125 311.574 139.255C313.667 137.386 316.265 136.451 319.383 136.451C322.494 136.451 325.058 137.386 327.06 139.255C329.062 141.125 330.063 143.441 330.063 146.196C330.063 149.042 329.079 151.333 327.126 153.07C325.166 154.808 322.585 155.676 319.383 155.676Z" fill="#2C54AC"/>
<path d="M306.404 127.509V120.436C306.404 115.985 306.958 112.271 308.075 109.293C309.184 106.314 310.615 103.75 312.344 101.616C314.081 99.4814 315.835 97.5705 317.613 95.8746C320.012 93.6493 322.155 91.4488 324.016 89.2649C325.886 87.0893 326.82 84.2187 326.82 80.6533C326.82 78.701 326.332 77.0465 325.356 75.7146C324.38 74.3828 323.197 73.3322 321.816 72.5794C320.434 71.8266 319.077 71.446 317.746 71.446C315.165 71.446 313.005 72.0499 311.268 73.2494C309.531 74.4489 308.108 75.9876 307 77.8572C305.883 79.7268 304.932 81.6874 304.129 83.7306L288.775 76.5253C289.313 74.9205 290.24 72.8772 291.58 70.3872C292.912 67.8972 294.806 65.4071 297.255 62.9089C299.703 60.4189 302.772 58.3259 306.462 56.6383C310.151 54.9508 314.577 54.0987 319.739 54.0987C324.81 54.0987 329.368 54.9673 333.422 56.7045C337.467 58.4417 340.693 61.1055 343.101 64.7123C345.5 68.3191 346.707 73.0509 346.707 78.9243C346.707 83.8216 346.037 87.7759 344.706 90.8036C343.374 93.8313 341.719 96.3875 339.767 98.4804C337.806 100.573 335.854 102.641 333.893 104.685C332.38 106.199 330.932 107.87 329.559 109.69C328.177 111.518 327.085 113.627 326.291 116.026C325.489 118.425 325.092 121.321 325.092 124.704V127.509H306.404ZM315.744 155.676C312.542 155.676 309.912 154.808 307.868 153.07C305.817 151.333 304.799 149.042 304.799 146.196C304.799 143.441 305.841 141.125 307.934 139.255C310.027 137.386 312.625 136.451 315.744 136.451C318.854 136.451 321.419 137.386 323.42 139.255C325.422 141.125 326.423 143.441 326.423 146.196C326.423 149.042 325.439 151.333 323.487 153.07C321.526 154.808 318.945 155.676 315.744 155.676Z" fill="white"/>
<path d="M224.296 113.353C227.919 90.1744 212.065 68.4476 188.886 64.8253C165.707 61.203 143.98 77.0568 140.358 100.236C136.735 123.415 152.589 145.142 175.768 148.764C198.947 152.386 220.674 136.532 224.296 113.353Z" fill="#319BFF"/>
<path d="M182.186 149.265C207.798 149.265 228.561 130.246 228.561 106.786C228.561 83.3254 207.798 64.3069 182.186 64.3069C156.574 64.3069 135.811 83.3254 135.811 106.786C135.811 130.246 156.574 149.265 182.186 149.265Z" stroke="#2C54AC" stroke-width="0.806738" stroke-miterlimit="10"/>
<path d="M171.572 145.815L178.67 163.692L182.649 145.815H171.572Z" fill="#2C54AC"/>
<path d="M179.712 121.205L179.001 116.994C178.554 114.347 178.504 112.08 178.868 110.194C179.232 108.308 179.82 106.645 180.63 105.198C181.449 103.75 182.301 102.435 183.187 101.252C184.394 99.6882 185.437 98.1578 186.33 96.677C187.223 95.188 187.488 93.3929 187.124 91.2751C186.926 90.1087 186.471 89.1822 185.751 88.4873C185.031 87.7924 184.229 87.2878 183.327 86.9817C182.434 86.6756 181.582 86.5846 180.788 86.717C179.249 86.9817 178.033 87.5525 177.123 88.4459C176.213 89.3394 175.518 90.39 175.046 91.6143C174.575 92.8386 174.203 94.096 173.93 95.3948L171.771 95.7588L164.077 92.6566C164.234 91.6474 164.582 90.3403 165.119 88.7189C165.665 87.1058 166.534 85.4265 167.742 83.6975C168.941 81.9686 170.563 80.4134 172.581 79.0401C174.608 77.6586 177.156 76.7073 180.225 76.1862C183.244 75.6733 186.041 75.7312 188.622 76.3516C191.203 76.972 193.395 78.2377 195.19 80.1404C196.985 82.0431 198.176 84.7399 198.772 88.2309C199.268 91.1428 199.268 93.5666 198.78 95.4941C198.292 97.4298 197.572 99.1174 196.621 100.557C195.67 101.996 194.71 103.427 193.759 104.842C193.014 105.893 192.319 107.034 191.682 108.258C191.045 109.483 190.615 110.848 190.375 112.362C190.144 113.867 190.193 115.629 190.541 117.639L190.822 119.302L179.712 121.205ZM188.117 137.014C186.214 137.336 184.56 137.088 183.17 136.261C181.78 135.434 180.936 134.176 180.647 132.48C180.366 130.842 180.754 129.362 181.813 128.038C182.864 126.714 184.32 125.895 186.173 125.581C188.026 125.267 189.639 125.564 191.021 126.474C192.402 127.384 193.229 128.658 193.511 130.296C193.8 131.992 193.444 133.448 192.46 134.681C191.467 135.913 190.02 136.691 188.117 137.014Z" fill="#55A3F3"/>
<path d="M177.545 121.577L176.833 117.366C176.387 114.719 176.337 112.453 176.701 110.567C177.057 108.68 177.652 107.018 178.463 105.57C179.282 104.122 180.134 102.807 181.019 101.624C182.227 100.06 183.269 98.5301 184.163 97.0493C185.056 95.5603 185.321 93.7652 184.957 91.6474C184.758 90.481 184.303 89.5545 183.584 88.8596C182.864 88.1647 182.061 87.6601 181.16 87.354C180.266 87.0479 179.414 86.9569 178.62 87.0893C177.081 87.354 175.865 87.9248 174.955 88.8182C174.045 89.7116 173.351 90.7622 172.879 91.9866C172.407 93.2109 172.035 94.4683 171.762 95.7671L161.918 93.0289C162.075 92.0197 162.423 90.7126 162.96 89.0912C163.506 87.4781 164.375 85.7988 165.583 84.0698C166.782 82.3409 168.404 80.7857 170.422 79.4042C172.449 78.0227 174.997 77.0713 178.066 76.5502C181.085 76.0373 183.881 76.0952 186.462 76.7156C189.043 77.336 191.236 78.6017 193.031 80.5044C194.826 82.4071 196.017 85.1039 196.613 88.5949C197.109 91.5068 197.109 93.9306 196.621 95.8581C196.133 97.7938 195.413 99.4814 194.462 100.921C193.51 102.36 192.551 103.791 191.6 105.206C190.855 106.257 190.16 107.398 189.523 108.622C188.886 109.847 188.456 111.212 188.216 112.726C187.984 114.231 188.034 115.993 188.382 118.003L188.663 119.666L177.545 121.577ZM185.949 137.378C184.047 137.7 182.392 137.452 181.003 136.625C179.613 135.798 178.769 134.54 178.479 132.844C178.198 131.206 178.587 129.726 179.646 128.402C180.696 127.078 182.152 126.259 184.005 125.945C185.858 125.631 187.472 125.928 188.853 126.838C190.235 127.748 191.062 129.022 191.343 130.66C191.633 132.356 191.277 133.812 190.292 135.045C189.3 136.277 187.86 137.055 185.949 137.378Z" fill="white"/>
<path d="M473.942 147.305C493.142 136.925 500.291 112.946 489.912 93.7469C479.532 74.5475 455.553 67.398 436.353 77.7779C417.154 88.1578 410.004 112.137 420.384 131.336C430.764 150.535 454.743 157.685 473.942 147.305Z" fill="#319BFF"/>
<path d="M495.927 125.497C502.37 104.646 489.182 82.0536 466.471 75.0363C443.76 68.0191 420.126 79.234 413.683 100.086C407.24 120.937 420.429 143.529 443.14 150.546C465.851 157.564 489.484 146.349 495.927 125.497Z" stroke="#0A2A6B" stroke-width="1.14309" stroke-miterlimit="10"/>
<path d="M453.977 150.183L442.76 164.122L444.133 147.147L453.977 150.183Z" fill="#0A2A6B"/>
<path d="M448.691 123.562L449.295 119.889C449.676 117.581 450.279 115.704 451.107 114.248C451.934 112.792 452.894 111.592 453.977 110.624C455.061 109.665 456.136 108.821 457.203 108.093C458.643 107.142 459.933 106.182 461.092 105.206C462.25 104.23 462.978 102.823 463.275 100.979C463.441 99.9611 463.325 99.0677 462.936 98.29C462.539 97.5124 462.018 96.8755 461.365 96.3626C460.711 95.8497 460.041 95.5436 459.346 95.4278C458.006 95.2044 456.839 95.3368 455.83 95.8166C454.829 96.2964 453.961 96.9664 453.224 97.8433C452.488 98.7202 451.826 99.655 451.239 100.648L449.353 100.342L443.885 95.6015C444.298 94.8156 444.96 93.8312 445.862 92.6565C446.764 91.4818 447.963 90.3485 449.444 89.2565C450.925 88.1728 452.695 87.3456 454.755 86.783C456.815 86.2205 459.181 86.1543 461.861 86.5928C464.492 87.023 466.783 87.8585 468.744 89.1076C470.696 90.3485 472.144 92.0112 473.087 94.0876C474.03 96.164 474.245 98.7202 473.748 101.773C473.335 104.312 472.648 106.314 471.697 107.77C470.746 109.226 469.67 110.417 468.479 111.336C467.288 112.254 466.088 113.164 464.905 114.057C463.987 114.711 463.102 115.455 462.225 116.283C461.356 117.11 460.612 118.119 459.991 119.294C459.371 120.469 458.916 121.941 458.626 123.695L458.386 125.151L448.691 123.562ZM451.14 138.974C449.477 138.701 448.186 138.031 447.276 136.956C446.358 135.88 446.027 134.606 446.267 133.125C446.499 131.694 447.243 130.586 448.484 129.792C449.725 128.997 451.156 128.733 452.778 128.997C454.391 129.262 455.64 129.965 456.525 131.107C457.402 132.248 457.725 133.531 457.493 134.962C457.253 136.443 456.55 137.543 455.384 138.279C454.217 139.015 452.803 139.247 451.14 138.974Z" fill="#55A3F3"/>
<path d="M446.805 123.256L447.409 119.583C447.79 117.275 448.394 115.389 449.221 113.942C450.048 112.486 451.008 111.286 452.091 110.318C453.175 109.359 454.251 108.515 455.318 107.787C456.757 106.835 458.048 105.876 459.206 104.9C460.364 103.924 461.092 102.517 461.39 100.673C461.555 99.655 461.439 98.7616 461.051 97.984C460.653 97.2063 460.132 96.5611 459.479 96.0565C458.825 95.5436 458.155 95.2375 457.46 95.1217C456.12 94.8983 454.954 95.0307 453.944 95.5022C452.944 95.982 452.075 96.6521 451.339 97.529C450.602 98.4058 449.941 99.3406 449.353 100.333L441.999 95.2871C442.413 94.5012 443.074 93.5168 443.976 92.3421C444.878 91.1674 446.077 90.0341 447.558 88.9422C449.039 87.8585 450.809 87.0312 452.869 86.4687C454.929 85.9062 457.295 85.84 459.975 86.2784C462.606 86.7086 464.897 87.5441 466.858 88.7933C468.81 90.0341 470.258 91.6969 471.201 93.7733C472.144 95.8497 472.359 98.4058 471.863 101.458C471.449 103.998 470.762 106 469.811 107.456C468.86 108.912 467.784 110.103 466.593 111.021C465.402 111.94 464.202 112.85 463.019 113.743C462.101 114.397 461.216 115.141 460.339 115.968C459.47 116.796 458.726 117.805 458.106 118.979C457.485 120.154 457.03 121.627 456.741 123.38L456.501 124.836L446.805 123.256ZM449.254 138.668C447.591 138.395 446.301 137.725 445.391 136.649C444.472 135.574 444.142 134.3 444.381 132.819C444.613 131.388 445.358 130.28 446.599 129.485C447.839 128.691 449.271 128.427 450.892 128.691C452.505 128.956 453.754 129.659 454.639 130.801C455.516 131.942 455.839 133.225 455.607 134.656C455.367 136.137 454.664 137.237 453.498 137.973C452.331 138.709 450.917 138.941 449.254 138.668Z" fill="white"/>
<g opacity="0.4">
<g opacity="0.4">
<path opacity="0.4" d="M229.967 70.809L229.091 67.7482C228.536 65.8207 228.321 64.1497 228.429 62.7186C228.536 61.2957 228.842 60.0052 229.322 58.8719C229.81 57.7303 230.331 56.6879 230.894 55.7366C231.655 54.4792 232.309 53.2631 232.846 52.0884C233.384 50.9138 233.434 49.5571 232.995 48.0184C232.755 47.1746 232.333 46.5211 231.746 46.0661C231.159 45.6111 230.513 45.305 229.827 45.1478C229.132 44.9907 228.503 44.9989 227.924 45.1644C226.807 45.487 225.947 46.0082 225.351 46.7444C224.747 47.4807 224.326 48.3162 224.077 49.2675C223.829 50.2106 223.656 51.1785 223.565 52.1629L216.028 50.9468C216.061 50.1858 216.21 49.1848 216.483 47.9439C216.748 46.7031 217.261 45.3877 218.014 44.0062C218.767 42.6247 219.834 41.3425 221.215 40.1513C222.605 38.96 224.417 38.0501 226.642 37.4048C228.834 36.7761 230.919 36.5859 232.879 36.834C234.848 37.0822 236.569 37.835 238.058 39.1007C239.547 40.3581 240.647 42.2608 241.383 44.8004C241.987 46.9182 242.194 48.7133 241.987 50.1858C241.789 51.6583 241.392 52.9736 240.804 54.1152C240.217 55.2651 239.63 56.3984 239.034 57.5317C238.571 58.3755 238.149 59.2772 237.777 60.2368C237.404 61.1964 237.198 62.247 237.148 63.3886C237.098 64.5302 237.289 65.829 237.702 67.2932L238.05 68.5093L229.967 70.809ZM237.495 81.8362C236.114 82.2333 234.865 82.1837 233.764 81.6873C232.664 81.191 231.936 80.3306 231.581 79.098C231.241 77.9068 231.407 76.7735 232.077 75.7063C232.747 74.6392 233.756 73.9112 235.105 73.5224C236.453 73.1336 237.677 73.2246 238.769 73.7871C239.87 74.3496 240.589 75.2265 240.928 76.4177C241.284 77.6503 241.144 78.7589 240.515 79.7515C239.894 80.7442 238.885 81.4391 237.495 81.8362Z" fill="#55A3F3"/>
</g>
<g opacity="0.4">
<path opacity="0.4" d="M398.659 72.4469L399.743 69.4523C400.421 67.5662 401.232 66.0854 402.158 64.9935C403.085 63.9015 404.077 63.0412 405.145 62.4042C406.203 61.7672 407.246 61.2295 408.255 60.7828C409.612 60.212 410.853 59.6081 411.978 58.9711C413.103 58.3341 413.938 57.267 414.484 55.7614C414.782 54.9341 414.832 54.1648 414.617 53.4451C414.41 52.7337 414.071 52.105 413.599 51.5755C413.127 51.0461 412.615 50.6738 412.052 50.4753C410.96 50.0782 409.959 50.0038 409.041 50.2437C408.123 50.4836 407.287 50.9137 406.526 51.5342C405.765 52.1546 405.062 52.8329 404.408 53.5775L399.015 48.1755C399.486 47.5799 400.198 46.8602 401.141 46.0082C402.084 45.1561 403.267 44.395 404.69 43.7167C406.104 43.0383 407.726 42.6247 409.546 42.4758C411.365 42.3269 413.367 42.6495 415.551 43.4354C417.694 44.213 419.489 45.2802 420.937 46.6369C422.384 47.9935 423.336 49.615 423.807 51.5093C424.27 53.4037 424.055 55.5877 423.154 58.0777C422.401 60.1458 421.516 61.7258 420.49 62.793C419.464 63.8684 418.372 64.6956 417.222 65.283C416.072 65.8703 414.931 66.4411 413.789 67.0119C412.921 67.4173 412.052 67.9054 411.183 68.4679C410.323 69.0304 409.537 69.7584 408.826 70.6518C408.123 71.5452 407.502 72.7117 406.989 74.1345L406.559 75.3175L398.659 72.4469ZM398.295 85.7904C396.938 85.3023 395.962 84.533 395.358 83.4824C394.754 82.4318 394.68 81.3067 395.11 80.1072C395.532 78.9408 396.326 78.1218 397.501 77.6503C398.667 77.1788 399.916 77.1871 401.232 77.6586C402.547 78.1384 403.49 78.9243 404.053 80.0162C404.615 81.1165 404.681 82.2498 404.259 83.4162C403.821 84.624 403.06 85.443 401.968 85.8731C400.876 86.3116 399.652 86.2868 398.295 85.7904Z" fill="#55A3F3"/>
</g>
<g opacity="0.4">
<path opacity="0.4" d="M475.502 217.132L476.313 215.147C476.826 213.898 477.405 212.922 478.058 212.218C478.712 211.507 479.407 210.961 480.134 210.556C480.862 210.159 481.574 209.819 482.269 209.555C483.195 209.207 484.047 208.835 484.825 208.438C485.603 208.041 486.19 207.346 486.595 206.345C486.819 205.799 486.868 205.278 486.752 204.79C486.628 204.302 486.422 203.872 486.124 203.508C485.826 203.135 485.487 202.879 485.115 202.722C484.395 202.424 483.716 202.349 483.096 202.482C482.476 202.622 481.897 202.887 481.375 203.284C480.846 203.681 480.358 204.12 479.895 204.6L476.42 200.819C476.751 200.43 477.247 199.967 477.909 199.421C478.571 198.875 479.382 198.395 480.358 197.982C481.326 197.568 482.426 197.328 483.659 197.278C484.883 197.229 486.223 197.502 487.671 198.089C489.094 198.668 490.268 199.438 491.203 200.389C492.138 201.34 492.733 202.457 492.998 203.739C493.255 205.021 493.048 206.486 492.378 208.132C491.815 209.505 491.178 210.539 490.45 211.234C489.731 211.929 488.978 212.458 488.184 212.814C487.398 213.178 486.612 213.534 485.826 213.881C485.23 214.129 484.635 214.436 484.039 214.783C483.443 215.139 482.897 215.602 482.393 216.181C481.897 216.76 481.45 217.529 481.061 218.472L480.738 219.258L475.502 217.132ZM474.89 226.091C473.996 225.727 473.359 225.181 472.979 224.462C472.607 223.742 472.582 222.981 472.904 222.187C473.219 221.417 473.781 220.888 474.575 220.598C475.378 220.317 476.213 220.35 477.082 220.706C477.951 221.062 478.563 221.616 478.91 222.369C479.258 223.122 479.274 223.883 478.952 224.66C478.629 225.454 478.091 225.984 477.338 226.249C476.61 226.513 475.783 226.464 474.89 226.091Z" fill="#55A3F3"/>
</g>
<g opacity="0.4">
<path opacity="0.4" d="M144.181 165.372L143.089 163.965C142.403 163.08 141.939 162.261 141.708 161.5C141.468 160.739 141.36 160.011 141.377 159.324C141.393 158.638 141.443 157.984 141.542 157.372C141.675 156.561 141.757 155.792 141.799 155.072C141.832 154.353 141.575 153.641 141.03 152.93C140.732 152.541 140.376 152.293 139.979 152.177C139.582 152.061 139.185 152.036 138.796 152.102C138.407 152.169 138.076 152.301 137.812 152.508C137.299 152.905 136.968 153.36 136.802 153.865C136.645 154.369 136.595 154.89 136.662 155.436C136.728 155.982 136.844 156.512 136.993 157.041L132.84 157.976C132.699 157.579 132.567 157.025 132.451 156.33C132.335 155.627 132.327 154.849 132.426 153.972C132.525 153.103 132.815 152.218 133.286 151.308C133.758 150.407 134.503 149.555 135.528 148.76C136.538 147.983 137.572 147.453 138.639 147.172C139.706 146.891 140.757 146.924 141.791 147.271C142.825 147.619 143.793 148.372 144.694 149.538C145.447 150.506 145.927 151.399 146.125 152.202C146.324 153.004 146.39 153.765 146.324 154.485C146.258 155.205 146.183 155.916 146.117 156.619C146.051 157.149 146.018 157.703 146.026 158.282C146.034 158.853 146.142 159.44 146.357 160.044C146.564 160.64 146.936 161.277 147.457 161.947L147.887 162.501L144.181 165.372ZM150.369 169.516C149.732 170.012 149.079 170.244 148.409 170.211C147.738 170.178 147.184 169.888 146.746 169.317C146.324 168.771 146.175 168.151 146.299 167.456C146.423 166.761 146.795 166.182 147.416 165.702C148.036 165.223 148.682 165.016 149.368 165.074C150.055 165.14 150.609 165.438 151.031 165.992C151.469 166.554 151.627 167.158 151.502 167.804C151.378 168.457 150.998 169.028 150.369 169.516Z" fill="#55A3F3"/>
</g>
<g opacity="0.4">
<path opacity="0.4" d="M395.11 150.299L395.929 148.578C396.442 147.495 397.004 146.651 397.625 146.055C398.237 145.46 398.882 144.996 399.552 144.682C400.222 144.359 400.868 144.103 401.496 143.896C402.34 143.631 403.109 143.342 403.821 143.028C404.524 142.713 405.086 142.118 405.5 141.257C405.723 140.777 405.798 140.323 405.715 139.884C405.632 139.446 405.467 139.057 405.219 138.709C404.971 138.362 404.681 138.114 404.359 137.965C403.73 137.667 403.134 137.568 402.572 137.659C402.009 137.75 401.488 137.957 401 138.287C400.512 138.618 400.057 138.982 399.618 139.388L396.715 135.855C397.029 135.524 397.492 135.136 398.105 134.681C398.717 134.226 399.47 133.837 400.346 133.514C401.232 133.192 402.216 133.034 403.316 133.051C404.408 133.068 405.591 133.374 406.849 133.969C408.081 134.557 409.099 135.293 409.885 136.186C410.67 137.08 411.15 138.097 411.316 139.255C411.481 140.414 411.233 141.704 410.555 143.135C409.992 144.326 409.372 145.212 408.693 145.799C408.015 146.378 407.32 146.816 406.6 147.098C405.881 147.379 405.169 147.66 404.45 147.933C403.904 148.123 403.358 148.363 402.812 148.653C402.266 148.934 401.753 149.323 401.281 149.819C400.81 150.316 400.379 150.969 399.982 151.796L399.66 152.483L395.11 150.299ZM394.134 158.241C393.356 157.868 392.81 157.355 392.512 156.694C392.215 156.032 392.231 155.362 392.562 154.667C392.876 153.997 393.406 153.55 394.125 153.335C394.853 153.12 395.59 153.194 396.351 153.55C397.112 153.906 397.625 154.435 397.898 155.122C398.171 155.809 398.146 156.487 397.832 157.157C397.501 157.852 396.996 158.299 396.326 158.489C395.639 158.696 394.911 158.613 394.134 158.241Z" fill="#55A3F3"/>
</g>
<g opacity="0.4">
<path opacity="0.4" d="M459.867 185.78L460.686 184.059C461.199 182.975 461.762 182.132 462.382 181.536C462.994 180.94 463.639 180.477 464.31 180.163C464.98 179.84 465.625 179.584 466.254 179.377C467.097 179.112 467.867 178.823 468.578 178.508C469.281 178.194 469.844 177.598 470.257 176.738C470.481 176.258 470.555 175.803 470.473 175.365C470.39 174.926 470.224 174.537 469.976 174.19C469.728 173.843 469.438 173.594 469.116 173.445C468.487 173.148 467.892 173.048 467.329 173.139C466.766 173.23 466.245 173.437 465.757 173.768C465.269 174.099 464.814 174.463 464.376 174.868L461.472 171.336C461.786 171.005 462.25 170.616 462.862 170.161C463.474 169.706 464.227 169.318 465.104 168.995C465.989 168.672 466.973 168.515 468.074 168.532C469.165 168.548 470.348 168.854 471.606 169.45C472.838 170.037 473.856 170.773 474.642 171.667C475.428 172.56 475.908 173.578 476.073 174.736C476.238 175.894 475.99 177.185 475.312 178.616C474.749 179.807 474.129 180.692 473.451 181.279C472.772 181.859 472.077 182.297 471.358 182.578C470.638 182.86 469.927 183.141 469.207 183.414C468.661 183.604 468.115 183.844 467.569 184.133C467.023 184.415 466.51 184.804 466.038 185.3C465.567 185.796 465.137 186.45 464.74 187.277L464.417 187.964L459.867 185.78ZM458.883 193.721C458.105 193.349 457.559 192.836 457.261 192.174C456.964 191.513 456.98 190.842 457.311 190.148C457.634 189.478 458.155 189.031 458.875 188.816C459.603 188.601 460.339 188.675 461.1 189.031C461.861 189.386 462.374 189.916 462.647 190.603C462.92 191.289 462.895 191.968 462.581 192.638C462.25 193.332 461.745 193.779 461.075 193.969C460.397 194.176 459.669 194.094 458.883 193.721Z" fill="#55A3F3"/>
</g>
<g opacity="0.4">
<path opacity="0.4" d="M237.95 161.649L237.015 159.721C236.428 158.505 236.089 157.422 235.998 156.462C235.907 155.503 235.956 154.617 236.147 153.807C236.337 152.996 236.56 152.243 236.825 151.548C237.189 150.622 237.478 149.745 237.702 148.901C237.925 148.057 237.801 147.156 237.33 146.188C237.073 145.658 236.717 145.269 236.279 145.038C235.832 144.806 235.377 144.674 234.897 144.649C234.418 144.624 234.004 144.699 233.64 144.881C232.937 145.22 232.424 145.667 232.11 146.229C231.795 146.783 231.613 147.396 231.555 148.049C231.497 148.703 231.497 149.364 231.547 150.026L226.41 150.084C226.344 149.579 226.327 148.893 226.36 148.041C226.393 147.189 226.584 146.254 226.923 145.253C227.262 144.252 227.825 143.276 228.602 142.333C229.388 141.39 230.48 140.571 231.886 139.892C233.268 139.222 234.624 138.858 235.956 138.8C237.288 138.743 238.521 139.04 239.646 139.71C240.779 140.372 241.731 141.506 242.5 143.11C243.145 144.442 243.484 145.609 243.517 146.61C243.55 147.611 243.443 148.529 243.186 149.356C242.93 150.183 242.665 151.011 242.401 151.821C242.185 152.433 242.012 153.079 241.879 153.757C241.747 154.435 241.722 155.155 241.821 155.916C241.921 156.677 242.194 157.521 242.64 158.439L243.013 159.2L237.95 161.649ZM244.212 168.085C243.335 168.507 242.508 168.614 241.722 168.416C240.936 168.209 240.357 167.721 239.977 166.943C239.613 166.191 239.596 165.421 239.919 164.635C240.241 163.849 240.829 163.254 241.681 162.84C242.533 162.427 243.352 162.344 244.146 162.592C244.94 162.84 245.519 163.337 245.883 164.089C246.256 164.867 246.297 165.62 245.991 166.348C245.676 167.092 245.081 167.663 244.212 168.085Z" fill="#55A3F3"/>
</g>
<g opacity="0.4">
<path opacity="0.4" d="M131.442 202.085L130.507 200.157C129.92 198.941 129.581 197.858 129.49 196.898C129.399 195.938 129.449 195.053 129.639 194.242C129.829 193.432 130.052 192.679 130.317 191.984C130.681 191.058 130.971 190.181 131.194 189.337C131.417 188.493 131.293 187.591 130.822 186.623C130.565 186.094 130.21 185.705 129.771 185.474C129.324 185.242 128.869 185.11 128.39 185.085C127.91 185.06 127.496 185.134 127.132 185.316C126.429 185.656 125.916 186.102 125.602 186.665C125.287 187.219 125.105 187.831 125.048 188.485C124.99 189.138 124.99 189.8 125.039 190.462L119.902 190.52C119.836 190.015 119.819 189.329 119.852 188.477C119.886 187.624 120.076 186.698 120.415 185.689C120.754 184.688 121.317 183.712 122.094 182.769C122.88 181.825 123.972 181.006 125.378 180.328C126.76 179.658 128.117 179.294 129.449 179.236C130.78 179.178 132.013 179.476 133.138 180.146C134.271 180.808 135.223 181.941 135.992 183.546C136.637 184.878 136.976 186.044 137.01 187.045C137.043 188.046 136.935 188.965 136.679 189.792C136.422 190.619 136.158 191.438 135.893 192.257C135.678 192.869 135.504 193.514 135.372 194.193C135.239 194.871 135.214 195.591 135.314 196.352C135.413 197.113 135.686 197.957 136.133 198.875L136.505 199.636L131.442 202.085ZM137.704 208.521C136.828 208.943 136 209.05 135.214 208.852C134.429 208.645 133.849 208.157 133.469 207.379C133.105 206.626 133.088 205.857 133.411 205.071C133.734 204.285 134.321 203.69 135.173 203.276C136.025 202.862 136.844 202.78 137.638 203.028C138.432 203.276 139.012 203.772 139.375 204.525C139.748 205.303 139.789 206.056 139.483 206.784C139.169 207.528 138.573 208.099 137.704 208.521Z" fill="#55A3F3"/>
</g>
</g>
<path d="M377.556 222.129C377.556 222.129 378.036 215.238 378.392 211.805C378.888 207.048 379.558 202.267 381.18 197.767C382.809 193.266 385.473 189.031 389.353 186.235C393.406 190.503 397.857 194.846 402.39 198.602C405.476 201.158 409.744 202.482 412.739 205.146C416.693 208.67 420.532 212.458 423.121 217.083C426.827 223.692 427.696 231.468 428.49 239.005C429.565 249.155 430.649 259.049 431.724 269.199C422.12 274.585 411.374 278.357 400.562 280.466C402.092 272.442 400.893 263.897 398.171 256.187C395.648 256.865 393.1 257.543 390.494 257.676C387.889 257.808 385.175 257.361 382.991 255.93C380.146 254.069 378.615 250.892 377.829 247.509C379.087 247.41 380.063 246.731 380.063 245.904C380.063 245.002 378.921 244.274 377.507 244.274C377.432 244.274 377.358 244.283 377.283 244.291C377.267 244.117 377.242 243.943 377.225 243.778C376.977 241.139 376.613 240.088 376.828 237.441C376.473 237.4 370.748 234.686 370.748 234.686L377.556 222.129Z" fill="#FF8775"/>
<path d="M382.073 222.361C382.073 223.907 382.843 225.157 383.786 225.157C384.729 225.157 385.498 223.899 385.498 222.361C385.498 220.814 384.729 219.564 383.786 219.564C382.843 219.564 382.073 220.814 382.073 222.361Z" fill="#0A2A6B"/>
<path d="M391.107 219.457C390.544 218.373 389.957 217.306 389.179 216.437C388.807 215.991 388.393 215.602 387.947 215.263C387.508 214.915 387.037 214.618 386.532 214.386C386.036 214.146 385.498 213.989 384.968 213.881C384.439 213.757 383.918 213.666 383.397 213.526C382.867 213.393 382.33 213.286 381.767 213.178L379.947 212.905L379.881 212.707C380.89 211.772 382.296 211.408 383.661 211.441C385.051 211.466 386.309 212.177 387.401 212.93C388.509 213.674 389.436 214.709 390.056 215.834C390.668 216.975 391.065 218.166 391.313 219.382L391.107 219.457Z" fill="#0A2A6B"/>
<path d="M398.18 256.195L403.83 253.647L399.114 259.082L398.18 256.195Z" fill="#0A2A6B"/>
<path d="M381.32 394.965L374.363 437.246H471.904L467.834 419.477C462.333 395.503 456.269 370.826 458.445 346.332C459.834 330.672 455.309 312.82 450.056 302.066C439.104 279.656 431.733 269.207 431.733 269.207C431.733 269.207 409.083 268.372 393.547 280.475C378.012 292.577 372.097 308.617 372.097 308.617L381.32 394.965Z" fill="#55A3F3"/>
<path d="M346.105 283.751L366.803 325.171L372.089 308.618C372.089 308.618 379.534 308.618 387.178 317.022C394.821 325.427 398.13 331.541 398.13 331.541L369.35 369.999C369.35 369.999 353.558 345.802 349.232 332.053C344.905 318.305 334.366 290.65 334.366 290.65L346.105 283.751Z" fill="#FF8775"/>
<path d="M386.185 347.506C388.369 344.487 390.61 341.517 392.86 338.556C395.111 335.594 397.41 332.666 399.685 329.721C402.002 326.809 404.293 323.88 406.634 320.985C408.975 318.089 411.325 315.202 413.732 312.365C411.548 315.384 409.306 318.354 407.056 321.316C404.806 324.277 402.506 327.206 400.231 330.151C397.915 333.063 395.623 335.991 393.282 338.886C390.941 341.774 388.592 344.661 386.185 347.506Z" fill="#0A2A6B"/>
<path d="M368.043 321.291C367.646 322.954 367.175 324.6 366.687 326.238C366.215 327.884 365.686 329.505 365.156 331.135C364.61 332.757 364.064 334.378 363.469 335.974C362.881 337.579 362.277 339.184 361.607 340.756C362.005 339.085 362.476 337.447 362.956 335.801C363.427 334.163 363.957 332.533 364.486 330.912C365.032 329.29 365.578 327.669 366.174 326.072C366.769 324.476 367.373 322.871 368.043 321.291Z" fill="#0A2A6B"/>
<path d="M462.109 364.589C477.504 352.9 474.022 344.685 474.022 344.685C474.022 344.685 470.026 365.375 445.97 365.375C421.914 365.375 410.043 251.149 410.291 244.696C410.531 238.244 408.86 231.609 404.922 226.497C401.083 221.517 395.367 218.257 391.454 213.327C386.88 207.561 385.192 200.091 383.629 192.902C381.56 195.872 380.253 199.454 379.724 203.036C375.662 199.76 373.18 194.788 373.702 189.585C374.223 184.39 378.127 179.542 383.248 178.483C386.88 177.731 390.594 178.806 394.226 179.542C399.09 180.518 404.078 180.874 409.025 180.601C414.005 180.328 418.952 179.418 423.932 179.584C436.556 180.006 444.398 188.443 447.947 200.563C457.742 234.05 489.169 316.609 483.924 340.773C480.855 354.894 470.026 362.165 462.109 364.589Z" fill="#0A2A6B"/>
<path d="M413.691 225.099C413.972 228.069 412.93 231.138 410.886 233.313C410.249 233.992 409.497 234.604 408.603 234.885C406.601 235.522 404.351 234.298 403.259 232.503C402.167 230.707 402.01 228.49 402.159 226.389C402.349 223.676 403.243 220.656 405.666 219.432C409.588 217.455 413.335 221.417 413.691 225.099Z" fill="#FF8775"/>
<path d="M405.608 232.974C406.436 232.486 407.122 231.766 407.561 230.914C407.652 230.741 407.734 230.559 407.718 230.368C407.693 230.004 407.337 229.756 407.023 229.566C406.386 229.177 405.749 228.797 405.112 228.408C404.988 228.333 404.856 228.251 404.781 228.118C404.698 227.978 404.707 227.804 404.715 227.638C404.822 225.554 405.004 223.295 406.403 221.748C406.783 221.326 407.246 220.971 407.792 220.83C408.603 220.615 409.48 220.905 410.15 221.401C410.82 221.897 411.325 222.584 411.804 223.27C411.804 223.27 413.244 227.324 410.961 230.525C408.677 233.719 405.608 232.974 405.608 232.974Z" fill="#FF8775"/>
<path d="M411.796 223.27C411.234 222.617 410.679 221.939 409.96 221.517C409.281 221.078 408.421 220.888 407.734 221.169C407.056 221.459 406.493 222.088 406.121 222.791C405.732 223.494 405.501 224.288 405.368 225.107C405.219 225.926 405.162 226.77 405.095 227.63C405.079 227.862 405.087 227.928 405.12 227.953C405.17 228.019 405.401 228.151 405.575 228.259C405.939 228.49 406.303 228.722 406.659 228.97C407.006 229.227 407.395 229.392 407.751 229.814C407.925 230.021 408.007 230.377 407.916 230.641C407.834 230.906 407.709 231.08 407.585 231.27C407.072 232.006 406.394 232.61 405.6 232.974C406.295 232.453 406.874 231.816 407.238 231.063C407.329 230.881 407.436 230.683 407.461 230.525C407.486 230.368 407.453 230.261 407.345 230.145C407.13 229.913 406.7 229.731 406.328 229.516C405.947 229.309 405.575 229.103 405.203 228.888C405.013 228.763 404.847 228.722 404.582 228.482C404.45 228.366 404.351 228.151 404.334 227.994C404.309 227.829 404.318 227.696 404.318 227.589C404.351 226.72 404.409 225.851 404.558 224.966C404.715 224.089 404.971 223.204 405.443 222.402C405.923 221.633 406.568 220.871 407.536 220.574C408.512 220.284 409.496 220.64 410.199 221.194C410.903 221.773 411.382 222.509 411.796 223.27Z" fill="#0A2A6B"/>
<path d="M346.105 283.75L337.311 238.632C337.311 238.632 335.714 238.393 335.119 240.543C334.523 242.694 337.03 258.437 337.03 258.437L335.02 258.371C333.977 258.337 333.001 258.875 332.48 259.777C331.975 260.646 331.041 261.183 330.031 261.183H328.633C327.5 261.183 326.474 261.862 326.027 262.896L325.978 263.011C325.581 263.946 324.712 264.591 323.703 264.707L323.289 264.757C322.081 264.898 321.097 265.791 320.849 266.982L320.675 267.785C320.518 268.521 320.659 269.282 321.064 269.911L334.465 290.641L346.105 283.75Z" fill="#FF8775"/>
<path d="M407.924 258.478C401.009 258.478 395.375 252.853 395.375 245.929C395.375 239.013 401 233.379 407.924 233.379V234.207C401.464 234.207 396.202 239.468 396.202 245.929C396.202 252.39 401.464 257.651 407.924 257.651C414.385 257.651 419.531 252.39 419.646 245.929C419.762 239.675 414.261 234.314 409.736 234.314L410.621 233.578C416.478 234.629 420.474 239.882 420.474 245.929C420.465 252.853 414.84 258.478 407.924 258.478Z" fill="white"/>
<g opacity="0.29">
<g opacity="0.29">
<path opacity="0.29" d="M474.022 344.685C474.493 343.246 474.551 341.724 474.584 340.227C474.601 338.721 474.493 337.215 474.344 335.726L474.079 333.485L473.707 331.259C473.492 329.77 473.128 328.306 472.822 326.833C471.523 320.96 469.736 315.202 467.817 309.494C466.783 306.665 465.832 303.811 464.723 301.015L463.102 296.796C462.556 295.39 461.96 294.008 461.389 292.619C459.09 287.068 456.757 281.467 454.78 275.768C454.25 274.353 453.828 272.905 453.349 271.474C452.894 270.035 452.406 268.604 451.967 267.164C451.132 264.261 450.213 261.39 449.452 258.47L448.269 254.102L447.161 249.718C446.408 246.797 445.763 243.852 445.093 240.907C443.81 235.009 442.603 229.103 441.544 223.163C440.518 217.223 439.558 211.267 438.789 205.286C439.691 211.251 440.774 217.174 441.941 223.089C443.074 229.003 444.356 234.893 445.705 240.767C448.476 252.489 451.545 264.153 455.549 275.503C457.501 281.203 459.785 286.745 462.076 292.346C462.639 293.744 463.234 295.133 463.772 296.54L465.377 300.775C466.485 303.58 467.412 306.458 468.404 309.304C470.266 315.045 471.986 320.844 473.203 326.759C473.467 328.248 473.806 329.721 473.988 331.218L474.311 333.46L474.526 335.718C474.642 337.224 474.716 338.729 474.667 340.243C474.617 341.724 474.526 343.263 474.022 344.685Z" fill="white"/>
</g>
<g opacity="0.29">
<path opacity="0.29" d="M429.061 209.919C430.119 216.702 431.369 223.444 432.717 230.17C434.049 236.895 435.505 243.604 437.126 250.264C438.756 256.923 440.493 263.557 442.462 270.126C444.423 276.694 446.573 283.204 448.716 289.723C450.834 296.25 452.943 302.794 454.722 309.436C456.484 316.079 457.882 322.846 458.519 329.704C458.875 333.129 458.966 336.57 458.941 340.011C458.932 341.732 458.784 343.453 458.701 345.173L458.378 347.738L458.213 349.02L457.948 350.286C457.286 353.653 456.227 357.02 454.283 359.89L453.531 360.941C453.282 361.288 452.96 361.586 452.678 361.909L452.24 362.38C452.083 362.529 451.909 362.661 451.752 362.802C451.413 363.067 451.115 363.389 450.743 363.604C449.336 364.581 447.69 365.284 445.969 365.367C447.69 365.251 449.312 364.514 450.685 363.522C451.049 363.298 451.347 362.976 451.669 362.711C451.826 362.57 451.992 362.43 452.149 362.281L452.571 361.801C452.844 361.47 453.158 361.181 453.398 360.825L454.126 359.774C455.987 356.904 456.972 353.553 457.567 350.203L457.807 348.946L457.956 347.672L458.246 345.124C458.304 343.411 458.436 341.707 458.428 340.003C458.411 336.578 458.279 333.162 457.89 329.762C457.162 322.962 455.797 316.236 454.002 309.627C452.207 303.017 450.081 296.498 447.938 289.98C445.821 283.453 443.686 276.926 441.751 270.333C439.806 263.748 438.053 257.097 436.514 250.404C433.428 237.036 430.93 223.519 429.061 209.919Z" fill="white"/>
</g>
<g opacity="0.29">
<path opacity="0.29" d="M424.486 230.434L429.69 262.234C431.468 272.823 433.23 283.42 435.29 293.95C435.778 296.589 436.324 299.212 436.87 301.842L438.591 309.709L439.021 311.678L439.393 313.664L440.13 317.634L440.733 321.63C440.94 322.962 441.031 324.31 441.188 325.642C441.354 326.982 441.412 328.331 441.486 329.671C441.594 331.011 441.577 332.368 441.585 333.716L441.594 334.725L441.544 335.735L441.437 337.753C441.387 338.423 441.279 339.093 441.205 339.763L441.081 340.764C441.031 341.095 440.957 341.426 440.891 341.757C440.419 344.412 439.6 347.01 438.483 349.459C437.391 351.924 436.018 354.24 434.794 356.623C435.96 354.207 437.267 351.849 438.293 349.376C439.335 346.911 440.088 344.321 440.485 341.682L440.651 340.698L440.758 339.705C440.824 339.044 440.915 338.382 440.957 337.712L441.04 335.71L441.081 334.709L441.064 333.708C441.031 332.368 441.04 331.036 440.907 329.704C440.808 328.372 440.733 327.032 440.551 325.708C440.27 323.045 439.832 320.406 439.418 317.759L438.674 313.813L438.293 311.835L437.855 309.875L436.093 302.016C435.53 299.385 434.976 296.755 434.479 294.116C432.486 283.552 430.707 272.955 429.061 262.341L426.67 246.409L424.486 230.434Z" fill="white"/>
</g>
</g>
<path d="M271.883 331.152C270.981 335.933 268.293 340.367 264.463 343.378C260.633 346.39 255.702 347.97 250.838 347.721C248.422 347.606 246.032 347.051 243.748 346.257C239.811 344.901 237.031 343.461 234.574 340.094C230.843 347.357 223.167 352.437 215.026 353.041C206.878 353.645 198.779 350.666 194.014 344.04C184.534 348.267 172.845 347.068 164.432 340.996C156.019 334.924 150.741 324.104 151.767 313.771C143.685 306.938 140.318 295.034 143.61 284.975C147.134 274.221 160.164 268.322 164.093 257.709C168.61 245.499 171.588 235.745 179.463 202.077C187.339 168.399 215.531 170.525 215.531 170.525C215.531 170.525 242.64 165.165 253.675 202.895C264.719 240.634 269.848 269.696 278.733 281.641C281.694 285.62 283.481 290.153 285.715 294.579C289.115 301.329 289.942 309.461 287.419 316.584C284.887 323.723 279.188 329.224 271.883 331.152Z" fill="#0A2A6B"/>
<path d="M240.009 251.86C233.135 258.007 222.215 259.107 214.257 254.433C211.899 253.051 209.815 251.24 207.862 249.321C203.974 245.499 200.517 241.18 198.06 236.308C196.314 232.842 195.09 229.127 194.105 225.372C191.921 217.066 190.879 208.231 192.997 199.909C195.115 191.587 200.823 183.852 208.905 180.957C218.129 177.664 228.585 178.79 236.303 184.828C244.021 190.867 248.546 200.43 249.589 210.167C250.118 215.081 249.82 220.044 249.365 224.966C248.902 229.971 248.265 234.984 246.727 239.766C245.196 244.572 243.757 248.518 240.009 251.86Z" fill="#FF8775"/>
<path d="M194.627 230.079C196.314 228.424 197.274 226.166 197.936 223.891C199.516 218.473 201.079 206.486 201.079 206.486C201.079 206.486 217.657 203.905 223.82 189.453C230.463 198.561 240.473 204.484 251.665 205.783C250.069 198.875 247.363 192.141 242.64 186.839C237.925 181.536 231.571 177.615 224.614 176.242C213.719 174.099 201.964 178.616 194.709 187.021C187.454 195.425 184.675 207.288 186.66 218.208C187.363 222.063 188.811 226.091 192.037 228.308" fill="#0A2A6B"/>
<path d="M219.61 215.602C219.61 217.025 218.741 218.175 217.666 218.175C216.59 218.175 215.722 217.025 215.722 215.602C215.722 214.179 216.59 213.029 217.666 213.029C218.741 213.029 219.61 214.179 219.61 215.602Z" fill="#0A2A6B"/>
<path d="M240.084 215.602C240.084 217.025 239.216 218.175 238.14 218.175C237.065 218.175 236.196 217.025 236.196 215.602C236.196 214.179 237.065 213.029 238.14 213.029C239.216 213.029 240.084 214.179 240.084 215.602Z" fill="#0A2A6B"/>
<path d="M184.874 223.453C185.362 226.886 187.389 230.071 190.284 231.965C191.194 232.561 192.211 233.04 193.287 233.115C195.727 233.288 197.936 231.295 198.68 228.962C199.425 226.629 198.995 224.081 198.25 221.757C197.291 218.745 195.462 215.577 192.377 214.857C187.422 213.691 184.27 219.2 184.874 223.453Z" fill="#FF8775"/>
<path d="M196.166 230.145C195.099 229.822 194.123 229.194 193.395 228.35C193.246 228.184 193.105 227.994 193.072 227.771C193.006 227.349 193.328 226.977 193.634 226.671C194.247 226.058 194.859 225.446 195.479 224.834C195.603 224.71 195.727 224.586 195.777 224.412C195.827 224.23 195.777 224.032 195.719 223.85C195.024 221.525 194.197 219.027 192.203 217.654C191.666 217.281 191.037 217.008 190.383 217C189.415 216.983 188.497 217.546 187.877 218.291C187.256 219.035 186.876 219.953 186.52 220.855C186.52 220.855 186.007 225.827 189.457 228.821C192.898 231.833 196.166 230.145 196.166 230.145Z" fill="#FF8775"/>
<path d="M186.512 220.872C186.776 219.904 187.116 218.936 187.753 218.084C188.39 217.265 189.407 216.578 190.59 216.653C191.756 216.735 192.7 217.414 193.452 218.158C194.205 218.927 194.735 219.862 195.156 220.805C195.562 221.757 195.86 222.733 196.141 223.701C196.174 223.825 196.215 223.965 196.232 224.156C196.257 224.338 196.199 224.611 196.083 224.776C195.851 225.115 195.669 225.215 195.496 225.405L194.395 226.431C194.04 226.778 193.609 227.109 193.427 227.423C193.337 227.589 193.32 227.713 193.394 227.878C193.469 228.044 193.634 228.242 193.791 228.424C194.412 229.169 195.239 229.74 196.166 230.137C195.173 229.946 194.238 229.442 193.452 228.755C193.262 228.573 193.072 228.408 192.906 228.135C192.724 227.862 192.716 227.432 192.857 227.15C192.981 226.853 193.171 226.637 193.353 226.447L193.866 225.893L194.9 224.801C195.065 224.627 195.289 224.412 195.33 224.329C195.355 224.288 195.347 224.214 195.264 223.957C194.966 223.006 194.668 222.063 194.271 221.186C193.899 220.292 193.419 219.465 192.791 218.779C192.178 218.092 191.368 217.521 190.524 217.397C189.68 217.273 188.762 217.72 188.108 218.39C187.413 219.06 186.967 219.978 186.512 220.872Z" fill="#0A2A6B"/>
<path d="M228.023 212.177C228.189 214.394 228.338 216.628 228.875 218.712C229.016 219.225 229.181 219.73 229.421 220.16C229.636 220.549 230.042 220.929 230.406 221.285C231.183 221.988 232.135 222.584 232.97 223.461C234.716 225.231 235.154 228.06 234.137 230.269C233.111 232.494 230.679 233.851 228.437 233.586C230.646 233.264 232.499 231.758 233.194 229.872C233.897 227.986 233.45 225.727 232.085 224.288C231.398 223.544 230.488 222.89 229.661 222.063C229.248 221.633 228.867 221.194 228.569 220.599C228.305 220.028 228.164 219.465 228.056 218.894C227.684 216.636 227.775 214.394 228.023 212.177Z" fill="#0A2A6B"/>
<path d="M208.069 210.936C208.516 209.505 209.376 208.198 210.477 207.131C211.602 206.08 212.983 205.27 214.514 204.839C216.036 204.426 217.723 204.26 219.254 204.798C220.768 205.311 222.149 206.271 222.943 207.627L222.827 207.751C221.446 207.106 220.155 206.651 218.824 206.403C217.508 206.18 216.16 205.915 214.803 206.138C213.455 206.353 212.139 206.924 211.006 207.768C209.856 208.595 208.897 209.712 208.218 211.011L208.069 210.936Z" fill="#0A2A6B"/>
<path d="M233.259 241.693C233.317 242.537 231.886 243.323 230.066 243.447C228.246 243.571 226.724 242.992 226.666 242.148C226.608 241.305 228.039 240.519 229.859 240.395C231.679 240.27 233.201 240.858 233.259 241.693Z" fill="#0A2A6B"/>
<path d="M222.885 368.403C194.147 368.403 180.663 357.144 180.663 357.144C180.663 357.144 167.923 376.261 163.141 395.693C158.368 415.125 158.476 437.246 158.476 437.246H268.905C268.905 437.246 277.823 411.535 272.09 388.166C266.357 364.788 261.261 357.144 261.261 357.144C261.261 357.144 251.624 368.403 222.885 368.403Z" fill="#0252BA"/>
<path d="M120.456 437.246H137.655L159.651 367.79C151.445 367.17 143.114 365.433 136.488 360.949C128.348 398.663 120.456 437.246 120.456 437.246Z" fill="#FF8775"/>
<path d="M299.745 249.288C301.391 247.244 302.93 245.275 304.303 243.414C317.018 226.216 327.193 209.671 327.193 209.671L309.829 205.278C309.829 205.278 294.037 217.844 280.652 230.294C287.328 235.158 295.477 242.215 299.745 249.288Z" fill="#FF8775"/>
<path d="M224.085 263.466C220.826 262.921 220.214 262.308 220.214 262.308L218.865 244.39L196.463 228.151C196.463 228.151 196.852 256.791 195.132 260.621C194.875 261.192 193.866 261.986 192.327 262.962L221.769 303.133L224.085 263.466Z" fill="#FF8775"/>
<path d="M299.745 249.287C295.476 242.215 287.328 235.158 280.652 230.286C275.151 235.406 249.051 257.618 238.115 261.903C232.481 264.112 227.551 264.046 224.085 263.458L221.76 303.125L192.319 262.954C183.624 268.446 157.864 279.73 153.264 290.559C150.758 296.465 143.528 328.38 136.496 360.941C143.114 365.425 151.453 367.162 159.659 367.782L173.019 325.601L180.663 357.136C180.663 357.136 194.155 368.394 222.885 368.394C251.616 368.394 261.261 357.136 261.261 357.136C261.261 357.136 257.117 329.737 259.028 321.134C260.939 312.53 266.357 309.983 267.309 302.339C268.268 294.695 265.075 287.688 265.075 287.688C265.075 287.688 286.17 266.155 299.745 249.287Z" fill="#2C54AC"/>
<path d="M327.185 209.679C327.185 209.679 307.653 203.863 288.511 200.248C269.368 196.625 257.994 192.787 257.994 192.787L247.537 179.087C246.412 177.615 244.774 176.622 242.946 176.3L239.687 175.729L237.941 173.462C236.543 171.65 234.392 170.583 232.101 170.583H229.95L225.483 169.284C223.771 168.788 221.934 168.921 220.313 169.682C216.276 171.568 209.087 175.265 210.89 176.87C213.364 179.079 218.857 175.737 218.857 175.737C218.857 175.737 216.003 178.955 218.112 180.403C220.213 181.842 229.239 177.995 229.239 177.995C229.239 177.995 224.432 181.246 226.352 182.686C228.271 184.125 242.921 181.751 242.921 181.751C242.921 181.751 247.314 186.715 249.862 192.439C252.41 198.164 253.651 202.912 253.651 202.912C259.905 203.979 315.81 227.291 315.81 227.291L327.185 209.679Z" fill="#FF8775"/>
<path d="M240.605 175.745C238.264 176.225 235.914 176.457 233.648 176.97C231.373 177.466 229.189 178.227 227.129 179.443C227.956 178.574 228.957 177.871 230.049 177.342C231.133 176.804 232.291 176.432 233.466 176.159C235.832 175.654 238.231 175.58 240.605 175.745Z" fill="#0A2A6B"/>
<path d="M231.266 170.534C229.959 170.691 228.701 170.989 227.461 171.328C226.228 171.675 225.012 172.114 223.87 172.651C222.737 173.197 221.678 173.934 220.669 174.728C219.668 175.538 218.7 176.407 217.79 177.35C218.46 176.217 219.304 175.183 220.263 174.265C221.223 173.346 222.299 172.527 223.506 171.923C224.722 171.328 225.996 170.922 227.303 170.674C228.61 170.418 229.959 170.343 231.266 170.534Z" fill="#0A2A6B"/>
<path d="M233.871 394.113C231.026 397.497 228.039 400.731 225.02 403.933L225.219 403.519C224.979 406.34 224.73 409.161 224.424 411.982C224.143 414.803 223.804 417.615 223.465 420.428C223.109 423.241 222.728 426.045 222.307 428.849C221.885 431.654 221.421 434.45 220.867 437.246C220.925 434.4 221.074 431.571 221.256 428.742C221.446 425.913 221.67 423.092 221.926 420.263C222.191 417.442 222.464 414.621 222.795 411.808C223.109 408.996 223.465 406.183 223.837 403.37L223.87 403.114L224.036 402.957C227.245 399.945 230.48 396.951 233.871 394.113Z" fill="white"/>
<path d="M192.327 262.962L221.761 303.133L224.085 263.466L228.015 263.657L224.333 314.177L188.604 265.129L192.327 262.962Z" fill="#0A2A6B"/>
<path d="M265.704 289.715C264.645 287.721 263.578 285.744 262.444 283.808C261.303 281.881 260.128 279.97 258.871 278.117C257.63 276.256 256.314 274.444 254.958 272.649C254.279 271.755 253.584 270.879 252.873 270.002L251.814 268.686C251.45 268.256 251.086 267.826 250.73 267.388C251.574 268.132 252.377 268.935 253.171 269.729C253.948 270.548 254.701 271.391 255.446 272.244C256.927 273.956 258.275 275.776 259.549 277.645C260.798 279.532 261.973 281.476 262.99 283.494C264.033 285.521 264.959 287.589 265.704 289.715Z" fill="#0A2A6B"/>
<path d="M170.646 332.914C171.332 330.316 172.135 327.752 172.978 325.196C173.814 322.639 174.732 320.116 175.683 317.601C176.651 315.095 177.644 312.597 178.728 310.14L180.374 306.458C180.953 305.251 181.516 304.026 182.136 302.835C181.689 304.101 181.201 305.358 180.746 306.616L179.323 310.38L176.461 317.899L173.582 325.411C172.606 327.909 171.655 330.424 170.646 332.914Z" fill="#0A2A6B"/>
<path d="M219.866 256.7C209.277 253.027 204.992 244.853 204.992 244.853C204.992 244.853 206.556 248.816 209.517 252.332C211.875 255.128 216.499 258.048 219.998 259.09L219.866 256.7Z" fill="#0A2A6B"/>
<path d="M198.672 232.709C198.672 234.488 197.233 235.927 195.454 235.927C193.676 235.927 192.236 234.488 192.236 232.709C192.236 230.931 193.676 229.491 195.454 229.491C197.233 229.5 198.672 230.939 198.672 232.709Z" fill="white"/>
<path d="M245.205 206.941C244.006 207.181 242.806 207.379 241.607 207.611L238.008 208.215C236.809 208.413 235.634 208.761 234.418 208.785C233.202 208.819 231.986 208.802 230.72 208.537L230.695 208.372C231.829 207.735 233.02 207.396 234.219 207.139C235.419 206.875 236.651 206.949 237.876 206.899L241.532 206.784C242.757 206.784 243.973 206.759 245.189 206.775L245.205 206.941Z" fill="#0A2A6B"/>
<path d="M288.884 216.214C290.795 216.81 292.673 217.488 294.55 218.175C296.437 218.845 298.265 219.639 300.134 220.276C302.004 220.938 303.898 221.525 305.801 222.137L311.517 223.924C310.525 223.792 309.54 223.593 308.556 223.411C307.58 223.204 306.603 222.981 305.627 222.749C303.683 222.286 301.756 221.707 299.861 221.054C297.959 220.375 296.13 219.564 294.311 218.754C292.482 217.951 290.662 217.124 288.884 216.214Z" fill="#0A2A6B"/>
</g>
<defs>
<clipPath id="clip0_102_6253">
<rect width="413.623" height="413.623" fill="white" transform="translate(103.018 23.6229)"/>
</clipPath>
</defs>
</svg>
