<svg width="22" height="22" viewBox="0 0 36 36" fill="none" xmlns="http://www.w3.org/2000/svg">
<path d="M32.6256 8.94025C31.5498 9.40431 30.3791 9.7383 29.1732 9.86837C30.4252 9.12459 31.3627 7.94954 31.81 6.56369C30.6352 7.26255 29.3482 7.75261 28.0061 8.01212C27.4451 7.41245 26.7667 6.93472 26.0131 6.60871C25.2594 6.2827 24.4467 6.11539 23.6256 6.1172C20.3033 6.1172 17.6314 8.81017 17.6314 12.1149C17.6314 12.5789 17.6877 13.043 17.7791 13.4895C12.8045 13.2293 8.36777 10.8527 5.41816 7.21408C4.88071 8.13206 4.59907 9.17729 4.60254 10.241C4.60254 12.3223 5.66074 14.1574 7.27441 15.2367C6.32345 15.1993 5.39476 14.9379 4.56387 14.4738V14.5477C4.56387 17.4621 6.62402 19.8774 9.36973 20.4328C8.85419 20.5667 8.32385 20.6352 7.79121 20.6367C7.40098 20.6367 7.03184 20.5981 6.65918 20.5453C7.41855 22.9219 9.62988 24.6481 12.2631 24.7043C10.2029 26.318 7.62246 27.2672 4.82051 27.2672C4.31777 27.2672 3.85371 27.2496 3.37207 27.1934C6.02988 28.8985 9.1834 29.8828 12.5795 29.8828C23.6045 29.8828 29.6373 20.7492 29.6373 12.8215C29.6373 12.5613 29.6373 12.3012 29.6197 12.041C30.7869 11.1867 31.81 10.1285 32.6256 8.94025Z" fill="#fff"/>
</svg>
